<svg width="94" height="78" viewBox="0 0 94 78" fill="none" xmlns="http://www.w3.org/2000/svg">
<path d="M92.7259 0.00217967C92.595 0.00217967 92.475 0.0241906 92.355 0.0682123L62.181 10.9416L32.007 0.0682123C31.7343 -0.0528476 31.3852 0.0131851 31.2543 0.0682123L0.720271 11.0737C0.294824 11.2387 -0.0106258 11.679 0.000283141 12.1412V75.9728C0.000283141 76.6771 0.807542 77.2494 1.46208 77.0073L31.6361 66.1339L61.8101 77.0073C62.0501 77.0953 62.3228 77.0953 62.5628 77.0073L93.1078 66.0018C93.5223 65.8478 93.8277 65.4186 93.8277 64.9673V1.13574C93.8496 0.541446 93.315 0.00217967 92.7369 0.00217967H92.7259Z" fill="#98DBE4"></path>
</svg>