<svg width="324" height="78" viewBox="0 0 324 78" fill="none" xmlns="http://www.w3.org/2000/svg">
<path d="M92.7259 0.00217967C92.595 0.00217967 92.475 0.0241906 92.355 0.0682123L62.181 10.9416L32.007 0.0682123C31.7343 -0.0528476 31.3852 0.0131851 31.2543 0.0682123L0.720271 11.0737C0.294824 11.2387 -0.0106258 11.679 0.000283141 12.1412V75.9728C0.000283141 76.6771 0.807542 77.2494 1.46208 77.0073L31.6361 66.1339L61.8101 77.0073C62.0501 77.0953 62.3228 77.0953 62.5628 77.0073L93.1078 66.0018C93.5223 65.8478 93.8277 65.4186 93.8277 64.9673V1.13574C93.8496 0.541446 93.315 0.00217967 92.7369 0.00217967H92.7259Z" fill="#98DBE4"/>
<path d="M258.849 72.7781H241.606C241.606 66.0579 241.359 59.4099 241.702 52.792C241.901 48.9837 240.373 46.9141 237.196 45.3619C231.053 42.3658 224.73 41.7221 218.191 43.6593C210.899 45.8191 209.353 47.985 209.353 55.6738C209.353 61.275 209.353 66.8761 209.353 72.742H193.277V0.757202H209.281V29.4789C220.104 25.7548 230.416 25.1713 241.359 29.4188V0.763218H258.849V72.7841V72.7781Z" fill="#141623"/>
<path d="M182.021 12.8198C178.868 15.7437 175.668 18.7098 172.479 21.6637C161.596 11.3639 146.483 10.3953 136.544 21.4532C128.566 30.3332 129.24 44.8926 137.579 53.2853C146.543 62.3037 159.779 61.8645 172.287 51.7632C175.523 54.6871 178.832 57.6832 182.111 60.6432C173.622 72.2667 155.369 76.6886 139.426 71.2981C123.892 66.0519 114.53 52.7378 114.777 36.2532C115.036 19.7385 124.734 6.7554 140.424 1.92433C156.217 -2.93683 174.284 1.67164 182.021 12.8198Z" fill="#141623"/>
<path d="M323.535 59.4701V71.7193H272.566V1.82812H287.582C287.66 3.4826 287.817 5.34163 287.823 7.20066C287.841 22.7347 287.973 38.2627 287.745 53.7907C287.684 58.0984 288.84 59.6927 293.34 59.5604C303.2 59.2595 313.073 59.4701 323.529 59.4701H323.535Z" fill="#141623"/>
</svg>
