<svg width="342" height="281" viewBox="0 0 342 281" fill="none" xmlns="http://www.w3.org/2000/svg">
<path fill-rule="evenodd" clip-rule="evenodd" d="M334.964 8.38004V234.693L226.667 273.723L115.312 233.585L7.03445 272.614V46.3148L115.292 7.28529L226.647 47.4227L334.964 8.38004ZM2.62535 40.3732L113.92 0.248694C114.398 0.0480713 115.67 -0.192676 116.664 0.248694L226.647 39.8917L336.63 0.248694C337.067 0.0881958 337.504 0.00794682 337.982 0.00794682H338.021C340.129 0.00794682 342.077 1.97405 341.998 4.14077V236.863C341.998 238.508 340.884 240.073 339.373 240.635L228.039 280.759C227.164 281.08 226.17 281.08 225.295 280.759L115.312 241.116L5.3292 280.759C2.94345 281.642 0.00103204 279.555 0.00103204 276.988V44.2653C-0.0387304 42.5801 1.07462 40.9751 2.62535 40.3732Z" fill="#98DBE4"/>
</svg>
