<svg width="350" height="134" viewBox="0 0 350 134" fill="none" xmlns="http://www.w3.org/2000/svg">
<g clip-path="url(#clip0_9_11499)">
<path d="M209.118 83.3676C212.195 85.5616 214.31 88.5361 215.443 92.3123H211.383C210.379 89.7175 208.691 87.6079 206.298 86.0046C203.904 84.4013 201.084 83.5996 197.815 83.5996C194.994 83.5996 192.452 84.2536 190.165 85.5827C187.879 86.8906 186.105 88.7893 184.802 91.2364C183.499 93.6836 182.858 96.5316 182.858 99.8015C182.858 103.071 183.52 106.025 184.823 108.472C186.127 110.919 187.943 112.797 190.272 114.126C192.58 115.434 195.229 116.109 198.199 116.109C200.828 116.109 203.242 115.539 205.422 114.379C207.601 113.219 209.375 111.552 210.721 109.358C212.067 107.164 212.857 104.59 213.071 101.616H196.789V98.7045H216.447V102.101C216.191 105.392 215.251 108.345 213.648 110.982C212.045 113.619 209.866 115.687 207.152 117.206C204.439 118.725 201.319 119.484 197.836 119.484C194.14 119.484 190.828 118.661 187.943 116.995C185.058 115.328 182.815 113.008 181.212 110.012C179.61 107.016 178.819 103.62 178.819 99.8015C178.819 95.9831 179.61 92.6077 181.212 89.5909C182.815 86.5742 185.037 84.2536 187.9 82.587C190.763 80.9204 194.054 80.0977 197.772 80.0977C202.216 80.0977 205.977 81.1947 209.054 83.3887L209.118 83.3676Z" fill="#141623"/>
<path d="M231.853 90.3294C233.819 89.1691 236.212 88.5784 239.011 88.5784V92.7554H237.729C234.802 92.7554 232.387 93.536 230.443 95.076C228.52 96.6371 227.558 99.1686 227.558 102.671V119.062H223.605V89.1269H227.558V95.3291C228.456 93.1773 229.866 91.5107 231.832 90.3294H231.853Z" fill="#141623"/>
<path d="M265.656 90.5825C267.943 91.8061 269.716 93.5782 271.019 95.8988C272.323 98.2194 272.964 100.962 272.964 104.105C272.964 107.249 272.323 109.97 271.019 112.269C269.716 114.569 267.943 116.341 265.656 117.586C263.37 118.83 260.784 119.442 257.9 119.442C255.015 119.442 252.408 118.83 250.122 117.586C247.836 116.341 246.02 114.569 244.695 112.227C243.37 109.907 242.729 107.185 242.729 104.084C242.729 100.983 243.391 98.1983 244.695 95.8777C246.02 93.5571 247.814 91.785 250.122 90.5614C252.43 89.3379 255.015 88.7261 257.9 88.7261C260.784 88.7261 263.37 89.3379 265.656 90.5614V90.5825ZM252.344 93.4094C250.635 94.2955 249.267 95.6245 248.242 97.4388C247.216 99.2531 246.682 101.468 246.682 104.105C246.682 106.742 247.195 108.957 248.242 110.75C249.289 112.544 250.656 113.873 252.344 114.759C254.054 115.645 255.891 116.067 257.9 116.067C259.908 116.067 261.682 115.624 263.37 114.759C265.058 113.894 266.425 112.544 267.451 110.75C268.498 108.957 269.011 106.742 269.011 104.105C269.011 101.468 268.498 99.2531 267.451 97.4388C266.404 95.6245 265.058 94.2744 263.37 93.4094C261.682 92.5445 259.866 92.1015 257.9 92.1015C255.934 92.1015 254.054 92.5445 252.344 93.4094Z" fill="#141623"/>
<path d="M306.126 89.1268V119.083H302.237V111.679C301.468 114.273 300.058 116.256 298.007 117.607C295.977 118.957 293.626 119.632 290.998 119.632C287.451 119.632 284.567 118.535 282.366 116.32C280.165 114.105 279.054 110.856 279.054 106.573V89.1268H282.943V106.236C282.943 109.527 283.776 112.037 285.443 113.767C287.109 115.497 289.396 116.383 292.28 116.383C295.314 116.383 297.729 115.413 299.524 113.493C301.319 111.573 302.216 108.746 302.216 105.012V89.1057H306.105L306.126 89.1268Z" fill="#141623"/>
<path d="M338.22 90.5824C340.357 91.806 342.024 93.5781 343.22 95.8987C344.417 98.2193 345.015 100.962 345.015 104.105C345.015 107.248 344.417 109.928 343.22 112.248C342.024 114.569 340.336 116.362 338.199 117.607C336.062 118.851 333.605 119.463 330.87 119.463C327.75 119.463 325.122 118.683 322.985 117.1C320.848 115.518 319.353 113.451 318.541 110.856V133.239H314.652V89.1268H318.541V97.3543C319.353 94.7595 320.848 92.671 322.985 91.1098C325.122 89.5487 327.771 88.7471 330.87 88.7471C333.648 88.7471 336.105 89.3589 338.242 90.5824H338.22ZM323.989 93.6203C322.259 94.6118 320.934 96.0042 319.951 97.8184C318.989 99.6327 318.498 101.721 318.498 104.105C318.498 106.489 318.989 108.577 319.951 110.392C320.913 112.206 322.259 113.598 323.989 114.59C325.72 115.581 327.643 116.067 329.801 116.067C333.242 116.067 335.977 114.991 338.028 112.86C340.058 110.729 341.083 107.797 341.083 104.105C341.083 100.413 340.058 97.502 338.028 95.3502C335.998 93.2195 333.242 92.1436 329.801 92.1436C327.643 92.1436 325.72 92.6288 323.989 93.6203Z" fill="#141623"/>
</g>
<path d="M295.193 62.8702H280.795C280.795 57.2587 280.589 51.7075 280.875 46.1814C281.041 43.0014 279.765 41.2732 277.112 39.9771C271.983 37.4753 266.703 36.9377 261.242 38.5554C255.154 40.3589 253.863 42.1674 253.863 48.5878C253.863 53.2649 253.863 57.9419 253.863 62.8401H240.439V2.7312H253.802V26.7145C262.84 23.6048 271.451 23.1175 280.589 26.6642V2.73622H295.193V62.8752V62.8702Z" fill="#141623"/>
<path d="M231.04 12.8037C228.407 15.2452 225.735 17.7219 223.072 20.1886C213.984 11.588 201.365 10.7791 193.065 20.0127C186.404 27.4278 186.967 39.5852 193.929 46.5933C201.415 54.1238 212.467 53.7571 222.911 45.3223C225.614 47.7638 228.377 50.2656 231.115 52.7373C224.027 62.4431 208.785 66.1356 195.472 61.6343C182.5 57.2536 174.683 46.1361 174.889 32.3711C175.105 18.581 183.204 7.73978 196.306 3.70573C209.493 -0.353437 224.579 3.49474 231.04 12.8037Z" fill="#141623"/>
<path d="M349.208 51.7578V61.9861H306.647V3.62549H319.186C319.252 5.00701 319.382 6.55934 319.387 8.11168C319.402 21.0829 319.513 34.0492 319.322 47.0154C319.272 50.6124 320.236 51.9437 323.994 51.8332C332.228 51.582 340.472 51.7578 349.203 51.7578H349.208Z" fill="#141623"/>
<path fill-rule="evenodd" clip-rule="evenodd" d="M100.763 23.7617L51.2571 6.10087L5.84844 22.3034V116.087L51.2658 99.8848L100.772 117.546L146.198 101.343V7.55323L100.763 23.7617ZM1.16719 17.7646L50.6471 0.109428C50.8592 0.0211519 51.4249 -0.0847794 51.8669 0.109428L100.763 17.5528L149.66 0.109428C149.854 0.0388071 150.049 0.00349668 150.261 0.00349668H150.279C151.216 0.00349668 152.082 0.868602 152.046 1.82198V104.222C152.046 104.946 151.551 105.635 150.88 105.882L101.382 123.537C100.993 123.678 100.551 123.678 100.162 123.537L51.2658 106.094L2.36927 123.537C1.30861 123.925 0.000458826 123.007 0.000458826 121.877V19.4772C-0.0172189 18.7357 0.477757 18.0295 1.16719 17.7646Z" fill="#98DBE4"/>
<defs>
<clipPath id="clip0_9_11499">
<rect width="166.11" height="53.1413" fill="white" transform="translate(178.905 80.0767)"/>
</clipPath>
</defs>
</svg>
