<svg width="738" height="160" viewBox="0 0 738 160" fill="none" xmlns="http://www.w3.org/2000/svg">
<path d="M308.98 86.8729H288.398C288.398 78.8512 288.103 70.9157 288.512 63.0161C288.749 58.4703 286.925 55.9999 283.134 54.147C275.801 50.5707 268.254 49.8023 260.447 52.1147C251.743 54.6928 249.898 57.2781 249.898 66.456C249.898 73.142 249.898 79.8279 249.898 86.8298H230.709V0.903809H249.812V35.188C262.731 30.7427 275.04 30.0461 288.103 35.1162V0.91099H308.98V86.8801V86.8729Z" fill="#141623"/>
<path d="M217.273 15.3026C213.51 18.7928 209.689 22.3332 205.883 25.8593C192.892 13.5647 174.852 12.4085 162.988 25.608C153.466 36.2078 154.27 53.5869 164.223 63.605C174.924 74.37 190.723 73.8457 205.653 61.7881C209.517 65.2783 213.467 68.8546 217.38 72.3879C207.247 86.2625 185.459 91.5408 166.428 85.1063C147.886 78.844 136.711 62.9515 137.006 43.2743C137.314 23.5613 148.891 8.06371 167.62 2.29701C186.471 -3.5056 208.037 1.99539 217.273 15.3026Z" fill="#141623"/>
<path d="M386.194 70.9875V85.609H325.353V2.18213H343.278C343.372 4.15703 343.558 6.37609 343.565 8.59516C343.587 27.1376 343.745 45.673 343.472 64.2083C343.4 69.3502 344.779 71.2533 350.151 71.0953C361.921 70.7362 373.706 70.9875 386.187 70.9875H386.194Z" fill="#141623"/>
<g clip-path="url(#clip0_9_11539)">
<path d="M470.477 12.5026C476.534 16.8377 480.698 22.715 482.928 30.1763H474.936C472.959 25.0493 469.636 20.881 464.925 17.713C460.214 14.5451 454.661 12.9612 448.226 12.9612C442.673 12.9612 437.668 14.2533 433.167 16.8794C428.666 19.4637 425.175 23.2152 422.609 28.0505C420.043 32.8857 418.781 38.513 418.781 44.9739C418.781 51.4348 420.085 57.2704 422.651 62.1057C425.217 66.9409 428.792 70.6507 433.377 73.2768C437.92 75.8611 443.136 77.195 448.983 77.195C454.156 77.195 458.91 76.0695 463.2 73.777C467.491 71.4844 470.982 68.1914 473.632 63.8564C476.282 59.5213 477.838 54.4359 478.259 48.5586H446.207V42.8063H484.905V49.5173C484.4 56.0199 482.549 61.8556 479.394 67.066C476.24 72.2764 471.949 76.3613 466.607 79.3625C461.265 82.3637 455.124 83.8643 448.268 83.8643C440.991 83.8643 434.471 82.2386 428.792 78.9457C423.114 75.6527 418.697 71.0675 415.542 65.1485C412.388 59.2295 410.831 52.5185 410.831 44.9739C410.831 37.4292 412.388 30.7599 415.542 24.7992C418.697 18.8385 423.072 14.2533 428.708 10.9604C434.345 7.66739 440.822 6.04175 448.141 6.04175C456.891 6.04175 464.294 8.20928 470.351 12.5443L470.477 12.5026Z" fill="#141623"/>
<path d="M515.233 26.2579C519.103 23.9653 523.814 22.7982 529.324 22.7982V31.0515H526.8C521.038 31.0515 516.284 32.5938 512.457 35.6366C508.671 38.7212 506.778 43.7232 506.778 50.6426V83.0304H498.996V23.882H506.778V36.1368C508.545 31.8852 511.321 28.5922 515.191 26.2579H515.233Z" fill="#141623"/>
<path d="M581.777 26.7582C586.277 29.1758 589.769 32.6772 592.335 37.2624C594.9 41.8475 596.162 47.2664 596.162 53.4772C596.162 59.6879 594.9 65.0651 592.335 69.6086C589.769 74.152 586.277 77.6534 581.777 80.1127C577.276 82.572 572.186 83.7808 566.508 83.7808C560.829 83.7808 555.697 82.572 551.197 80.1127C546.696 77.6534 543.121 74.152 540.513 69.5252C537.905 64.94 536.643 59.5629 536.643 53.4355C536.643 47.308 537.947 41.8058 540.513 37.2207C543.121 32.6355 546.654 29.1342 551.197 26.7165C555.74 24.2989 560.829 23.0901 566.508 23.0901C572.186 23.0901 577.276 24.2989 581.777 26.7165V26.7582ZM555.571 32.3438C552.206 34.0945 549.514 36.7205 547.495 40.3053C545.476 43.89 544.425 48.2667 544.425 53.4772C544.425 58.6876 545.434 63.0643 547.495 66.6074C549.556 70.1504 552.248 72.7765 555.571 74.5272C558.936 76.2779 562.554 77.1115 566.508 77.1115C570.462 77.1115 573.953 76.2362 577.276 74.5272C580.599 72.8182 583.291 70.1504 585.31 66.6074C587.371 63.0643 588.381 58.6876 588.381 53.4772C588.381 48.2667 587.371 43.89 585.31 40.3053C583.249 36.7205 580.599 34.0528 577.276 32.3438C573.953 30.6348 570.378 29.7594 566.508 29.7594C562.638 29.7594 558.936 30.6348 555.571 32.3438Z" fill="#141623"/>
<path d="M661.445 23.882V83.0722H653.789V68.4414C652.275 73.5684 649.499 77.4866 645.461 80.1543C641.465 82.8221 636.838 84.1559 631.664 84.1559C624.682 84.1559 619.003 81.9884 614.67 77.6117C610.338 73.2349 608.151 66.8157 608.151 58.354V23.882H615.806V57.6871C615.806 64.1897 617.447 69.15 620.728 72.568C624.009 75.986 628.509 77.7367 634.188 77.7367C640.161 77.7367 644.914 75.8193 648.447 72.0261C651.981 68.2329 653.747 62.6474 653.747 55.2695V23.8403H661.403L661.445 23.882Z" fill="#141623"/>
<path d="M724.624 26.7583C728.83 29.1759 732.111 32.6773 734.466 37.2624C736.822 41.8476 738 47.2664 738 53.4772C738 59.688 736.822 64.9818 734.466 69.5669C732.111 74.1521 728.788 77.6952 724.582 80.1545C720.375 82.6138 715.538 83.8226 710.154 83.8226C704.013 83.8226 698.839 82.2803 694.632 79.1541C690.426 76.0278 687.482 71.9429 685.883 66.8158V111.042H678.228V23.8821H685.883V40.1386C687.482 35.0115 690.426 30.8849 694.632 27.8004C698.839 24.7158 704.055 23.1318 710.154 23.1318C715.622 23.1318 720.459 24.3406 724.666 26.7583H724.624ZM696.609 32.7607C693.202 34.7198 690.594 37.4709 688.659 41.0556C686.767 44.6404 685.799 48.767 685.799 53.4772C685.799 58.1874 686.767 62.3141 688.659 65.8988C690.552 69.4836 693.202 72.2347 696.609 74.1938C700.017 76.1529 703.802 77.1116 708.051 77.1116C714.823 77.1116 720.207 74.9857 724.245 70.7757C728.241 66.5657 730.26 60.7718 730.26 53.4772C730.26 46.1827 728.241 40.4304 724.245 36.1787C720.249 31.9687 714.823 29.8428 708.051 29.8428C703.802 29.8428 700.017 30.8015 696.609 32.7607Z" fill="#141623"/>
</g>
<path fill-rule="evenodd" clip-rule="evenodd" d="M74.2235 25.4383L37.7567 12.2973L6.00034 23.7433V90.0101L37.763 78.5643L74.2301 91.7054L105.999 80.2589V13.9878L74.2235 25.4383ZM110.241 6.08142C110.385 6.02888 110.528 6.0026 110.684 6.0026H110.697C111.387 6.0026 112.025 6.64631 111.999 7.3557V83.5494C111.999 84.0881 111.635 84.6004 111.14 84.7843L74.6793 97.9212C74.3928 98.0263 74.0673 98.0263 73.7808 97.9212L37.763 84.942L1.74523 97.9212C0.963937 98.2102 0.000337977 97.5271 0.000337977 96.6863V20.4926C-0.0126836 19.9408 0.351922 19.4153 0.859765 19.2183L37.3073 6.08142C37.4635 6.01574 37.8802 5.93692 38.2058 6.08142L74.2235 19.0606L110.241 6.08142ZM110.69 12.0026C110.688 12.0026 110.686 12.0026 110.684 12.0026Z" fill="#98DBE4"/>
<path d="M148.023 154H150.089L144.686 139.081H142.425L137 154H139.067L140.272 150.663H146.817L148.023 154ZM146.257 149.07H140.832L143.545 141.492L146.257 149.07Z" fill="#141623"/>
<path d="M151.722 148.058C151.722 151.718 154.154 154.194 157.319 154.194C159.472 154.194 161.001 153.096 161.711 151.782V154H163.692V138.069H161.711V144.312C160.893 142.956 159.192 142.009 157.341 142.009C154.154 142.009 151.722 144.377 151.722 148.058ZM161.711 148.08C161.711 150.857 159.86 152.471 157.707 152.471C155.554 152.471 153.724 150.835 153.724 148.058C153.724 145.281 155.554 143.709 157.707 143.709C159.86 143.709 161.711 145.345 161.711 148.08Z" fill="#141623"/>
<path d="M165.603 142.202L170.232 154H172.514L177.142 142.202H175.054L171.394 152.191L167.713 142.202H165.603Z" fill="#141623"/>
<path d="M184.086 143.666C186.11 143.666 187.832 144.936 187.811 147.24H180.362C180.577 144.936 182.17 143.666 184.086 143.666ZM189.597 150.362H187.488C187.057 151.632 185.938 152.536 184.172 152.536C182.17 152.536 180.491 151.223 180.34 148.833H189.77C189.813 148.424 189.834 148.08 189.834 147.649C189.834 144.42 187.595 142.009 184.172 142.009C180.728 142.009 178.338 144.355 178.338 148.08C178.338 151.825 180.814 154.194 184.172 154.194C187.1 154.194 188.995 152.514 189.597 150.362Z" fill="#141623"/>
<path d="M201.053 154H202.991V147.046C202.991 143.666 200.902 141.987 198.168 141.987C196.575 141.987 195.154 142.654 194.379 143.881V142.202H192.42V154H194.379V147.477C194.379 144.936 195.757 143.688 197.759 143.688C199.74 143.688 201.053 144.915 201.053 147.326V154Z" fill="#141623"/>
<path d="M206.621 150.771C206.621 153.139 207.805 154 209.894 154H211.659V152.342H210.217C209.011 152.342 208.58 151.933 208.58 150.771V143.817H211.659V142.202H208.58V139.231H206.621V142.202H205.093V143.817H206.621V150.771Z" fill="#141623"/>
<path d="M224.495 142.202H222.536V148.682C222.536 151.223 221.18 152.471 219.156 152.471C217.176 152.471 215.863 151.244 215.863 148.855V142.202H213.925V149.113C213.925 152.493 216.056 154.172 218.769 154.172C220.34 154.172 221.783 153.483 222.536 152.256V154H224.495V142.202Z" fill="#141623"/>
<path d="M229.762 147.584C229.762 144.85 231.183 144.011 233.056 144.011H233.573V141.987C231.7 141.987 230.43 142.805 229.762 144.118V142.202H227.803V154H229.762V147.584Z" fill="#141623"/>
<path d="M240.851 143.666C242.874 143.666 244.596 144.936 244.575 147.24H237.126C237.341 144.936 238.935 143.666 240.851 143.666ZM246.362 150.362H244.252C243.821 151.632 242.702 152.536 240.937 152.536C238.935 152.536 237.255 151.223 237.105 148.833H246.534C246.577 148.424 246.599 148.08 246.599 147.649C246.599 144.42 244.36 142.009 240.937 142.009C237.492 142.009 235.102 144.355 235.102 148.08C235.102 151.825 237.578 154.194 240.937 154.194C243.865 154.194 245.759 152.514 246.362 150.362Z" fill="#141623"/>
<path d="M255.355 150.771C255.355 153.139 256.539 154 258.627 154H260.392V152.342H258.95C257.744 152.342 257.314 151.933 257.314 150.771V143.817H260.392V142.202H257.314V139.231H255.355V142.202H253.826V143.817H255.355V150.771Z" fill="#141623"/>
<path d="M264.725 147.584C264.725 144.85 266.146 144.011 268.019 144.011H268.536V141.987C266.663 141.987 265.392 142.805 264.725 144.118V142.202H262.766V154H264.725V147.584Z" fill="#141623"/>
<path d="M270.065 148.058C270.065 151.718 272.498 154.194 275.641 154.194C277.815 154.194 279.344 153.074 280.054 151.804V154H282.035V142.202H280.054V144.355C279.365 143.128 277.858 142.009 275.663 142.009C272.498 142.009 270.065 144.377 270.065 148.058ZM280.054 148.08C280.054 150.857 278.203 152.471 276.05 152.471C273.897 152.471 272.067 150.835 272.067 148.058C272.067 145.281 273.897 143.709 276.05 143.709C278.203 143.709 280.054 145.345 280.054 148.08Z" fill="#141623"/>
<path d="M283.946 142.202L288.575 154H290.857L295.486 142.202H293.397L289.737 152.191L286.056 142.202H283.946Z" fill="#141623"/>
<path d="M302.429 143.666C304.453 143.666 306.175 144.936 306.154 147.24H298.705C298.92 144.936 300.513 143.666 302.429 143.666ZM307.941 150.362H305.831C305.4 151.632 304.281 152.536 302.516 152.536C300.513 152.536 298.834 151.223 298.684 148.833H308.113C308.156 148.424 308.178 148.08 308.178 147.649C308.178 144.42 305.939 142.009 302.516 142.009C299.071 142.009 296.681 144.355 296.681 148.08C296.681 151.825 299.157 154.194 302.516 154.194C305.443 154.194 307.338 152.514 307.941 150.362Z" fill="#141623"/>
<path d="M310.764 154H312.723V138.069H310.764V154Z" fill="#141623"/>
<path d="M323.76 147.584C323.76 144.85 325.181 144.011 327.054 144.011H327.571V141.987C325.698 141.987 324.428 142.805 323.76 144.118V142.202H321.801V154H323.76V147.584Z" fill="#141623"/>
<path d="M334.848 143.666C336.872 143.666 338.594 144.936 338.573 147.24H331.124C331.339 144.936 332.932 143.666 334.848 143.666ZM340.36 150.362H338.25C337.819 151.632 336.7 152.536 334.934 152.536C332.932 152.536 331.253 151.223 331.102 148.833H340.532C340.575 148.424 340.596 148.08 340.596 147.649C340.596 144.42 338.357 142.009 334.934 142.009C331.49 142.009 329.1 144.355 329.1 148.08C329.1 151.825 331.576 154.194 334.934 154.194C337.862 154.194 339.757 152.514 340.36 150.362Z" fill="#141623"/>
<path d="M343.182 154H345.141V142.202H343.182V154ZM344.194 140.286C344.905 140.286 345.486 139.705 345.486 138.951C345.486 138.198 344.905 137.617 344.194 137.617C343.441 137.617 342.859 138.198 342.859 138.951C342.859 139.705 343.441 140.286 344.194 140.286Z" fill="#141623"/>
<path d="M365.509 154H367.447V147.046C367.447 143.666 365.359 141.987 362.668 141.987C360.859 141.987 359.18 142.913 358.491 144.613C357.716 142.848 356.101 141.987 354.164 141.987C352.614 141.987 351.214 142.654 350.439 143.903V142.202H348.48V154H350.439V147.498C350.439 144.958 351.796 143.688 353.776 143.688C355.714 143.688 357.006 144.915 357.006 147.326V154H358.943V147.498C358.943 144.958 360.299 143.688 362.28 143.688C364.218 143.688 365.509 144.915 365.509 147.326V154Z" fill="#141623"/>
<path d="M369.929 148.058C369.929 151.718 372.361 154.194 375.504 154.194C377.679 154.194 379.207 153.074 379.918 151.804V154H381.898V142.202H379.918V144.355C379.229 143.128 377.722 142.009 375.526 142.009C372.361 142.009 369.929 144.377 369.929 148.058ZM379.918 148.08C379.918 150.857 378.066 152.471 375.913 152.471C373.761 152.471 371.931 150.835 371.931 148.058C371.931 145.281 373.761 143.709 375.913 143.709C378.066 143.709 379.918 145.345 379.918 148.08Z" fill="#141623"/>
<path d="M384.477 148.058C384.477 151.718 386.91 154.194 390.074 154.194C392.227 154.194 393.756 153.053 394.466 151.782V154.258C394.466 156.777 392.895 158.112 390.806 158.112C388.869 158.112 387.47 157.143 387.039 155.722H385.101C385.489 158.241 387.706 159.813 390.806 159.813C394.273 159.813 396.447 157.509 396.447 154.258V142.202H394.466V144.355C393.777 143.085 392.227 142.009 390.074 142.009C386.91 142.009 384.477 144.377 384.477 148.058ZM394.466 148.08C394.466 150.857 392.615 152.471 390.462 152.471C388.309 152.471 386.479 150.835 386.479 148.058C386.479 145.281 388.309 143.709 390.462 143.709C392.615 143.709 394.466 145.345 394.466 148.08Z" fill="#141623"/>
<path d="M399.758 154H401.717V142.202H399.758V154ZM400.769 140.286C401.48 140.286 402.061 139.705 402.061 138.951C402.061 138.198 401.48 137.617 400.769 137.617C400.016 137.617 399.435 138.198 399.435 138.951C399.435 139.705 400.016 140.286 400.769 140.286Z" fill="#141623"/>
<path d="M413.688 154H415.626V147.046C415.626 143.666 413.538 141.987 410.804 141.987C409.211 141.987 407.79 142.654 407.015 143.881V142.202H405.056V154H407.015V147.477C407.015 144.936 408.392 143.688 410.395 143.688C412.375 143.688 413.688 144.915 413.688 147.326V154Z" fill="#141623"/>
<path d="M423.842 143.666C425.866 143.666 427.588 144.936 427.567 147.24H420.118C420.333 144.936 421.926 143.666 423.842 143.666ZM429.354 150.362H427.244C426.813 151.632 425.694 152.536 423.928 152.536C421.926 152.536 420.247 151.223 420.096 148.833H429.526C429.569 148.424 429.59 148.08 429.59 147.649C429.59 144.42 427.351 142.009 423.928 142.009C420.484 142.009 418.094 144.355 418.094 148.08C418.094 151.825 420.57 154.194 423.928 154.194C426.856 154.194 428.751 152.514 429.354 150.362Z" fill="#141623"/>
<path d="M431.444 148.058C431.444 151.718 433.877 154.194 437.042 154.194C439.195 154.194 440.723 153.096 441.434 151.782V154H443.414V138.069H441.434V144.312C440.616 142.956 438.915 142.009 437.063 142.009C433.877 142.009 431.444 144.377 431.444 148.058ZM441.434 148.08C441.434 150.857 439.582 152.471 437.429 152.471C435.276 152.471 433.447 150.835 433.447 148.058C433.447 145.281 435.276 143.709 437.429 143.709C439.582 143.709 441.434 145.345 441.434 148.08Z" fill="#141623"/>
<defs>
<clipPath id="clip0_9_11539">
<rect width="327" height="105" fill="white" transform="translate(411 6)"/>
</clipPath>
</defs>
</svg>
