<svg width="244" height="199" viewBox="0 0 244 199" fill="none" xmlns="http://www.w3.org/2000/svg">
<path d="M241.133 0.00562344C240.793 0.00562344 240.481 0.0624105 240.169 0.175985L161.701 28.2288L83.2339 0.175985C82.5247 -0.136344 81.6169 0.034017 81.2765 0.175985L1.87306 28.5695C0.766686 28.9954 -0.0276322 30.1312 0.000736307 31.3237V196.006C0.000736307 197.823 2.10001 199.3 3.80212 198.675L82.2694 170.622L160.737 198.675C161.361 198.902 162.07 198.902 162.694 198.675L242.126 170.282C243.204 169.884 243.998 168.777 243.998 167.613V2.93016C244.055 1.39691 242.665 0.00562344 241.161 0.00562344H241.133Z" fill="#98DBE4"/>
<path d="M158.399 132.642H142.625C142.625 126.494 142.399 120.413 142.713 114.359C142.895 110.875 141.497 108.982 138.591 107.562C132.972 104.821 127.187 104.232 121.205 106.004C114.534 107.98 113.12 109.961 113.12 116.995C113.12 122.119 113.12 127.243 113.12 132.609H98.4139V66.7573H113.054V93.0319C122.955 89.6251 132.388 89.0913 142.399 92.9769V66.7628H158.399V132.647V132.642Z" fill="#141623"/>
<path d="M88.1162 77.7925C85.2322 80.4673 82.3043 83.1806 79.3873 85.8829C69.4312 76.4606 55.6059 75.5746 46.5138 85.6903C39.216 93.8138 39.8324 107.133 47.4605 114.81C55.661 123.06 67.769 122.659 79.2112 113.418C82.1722 116.093 85.1992 118.833 88.1987 121.541C80.433 132.174 63.7349 136.22 49.1501 131.288C34.9396 126.489 26.3759 114.309 26.6015 99.2294C26.8382 84.1218 35.7101 72.2448 50.0637 67.8254C64.5109 63.3784 81.0384 67.5942 88.1162 77.7925Z" fill="#141623"/>
<path d="M217.574 120.468V131.673H170.947V67.7369H184.684C184.756 69.2505 184.899 70.9511 184.904 72.6517C184.921 86.8622 185.042 101.067 184.833 115.272C184.778 119.213 185.834 120.671 189.951 120.55C198.972 120.275 208.003 120.468 217.569 120.468H217.574Z" fill="#141623"/>
</svg>
