<svg width="342" height="281" viewBox="0 0 342 281" fill="none" xmlns="http://www.w3.org/2000/svg">
<path d="M337.982 0.00794681C337.504 0.00794681 337.067 0.0881959 336.63 0.248694L226.647 39.8917L116.664 0.248694C115.67 -0.192676 114.398 0.0480713 113.92 0.248694L2.62535 40.3732C1.07462 40.9751 -0.0387304 42.5801 0.00103204 44.2653V276.988C0.00103204 279.555 2.94345 281.642 5.3292 280.759L115.312 241.116L225.295 280.759C226.17 281.08 227.164 281.08 228.039 280.759L339.373 240.635C340.884 240.073 341.998 238.508 341.998 236.863V4.14077C342.077 1.97405 340.129 0.00794681 338.021 0.00794681H337.982Z" fill="#98DBE4"/>
</svg>
