<svg width="350" height="178" viewBox="0 0 350 178" fill="none" xmlns="http://www.w3.org/2000/svg">
<g clip-path="url(#clip0_9_11506)">
<path d="M209.118 83.3676C212.195 85.5616 214.31 88.5361 215.443 92.3123H211.383C210.379 89.7175 208.691 87.6079 206.298 86.0046C203.904 84.4013 201.084 83.5996 197.815 83.5996C194.994 83.5996 192.452 84.2536 190.165 85.5827C187.879 86.8906 186.105 88.7893 184.802 91.2364C183.499 93.6836 182.858 96.5316 182.858 99.8015C182.858 103.071 183.52 106.025 184.823 108.472C186.127 110.919 187.943 112.797 190.272 114.126C192.58 115.434 195.229 116.109 198.199 116.109C200.828 116.109 203.242 115.539 205.422 114.379C207.601 113.219 209.375 111.552 210.721 109.358C212.067 107.164 212.857 104.59 213.071 101.616H196.789V98.7045H216.447V102.101C216.191 105.392 215.251 108.345 213.648 110.982C212.045 113.619 209.866 115.687 207.152 117.206C204.439 118.725 201.319 119.484 197.836 119.484C194.14 119.484 190.828 118.661 187.943 116.995C185.058 115.328 182.815 113.008 181.212 110.012C179.61 107.016 178.819 103.62 178.819 99.8015C178.819 95.9831 179.61 92.6077 181.212 89.5909C182.815 86.5742 185.037 84.2536 187.9 82.587C190.763 80.9204 194.054 80.0977 197.772 80.0977C202.216 80.0977 205.977 81.1947 209.054 83.3887L209.118 83.3676Z" fill="#141623"/>
<path d="M231.853 90.3294C233.819 89.1691 236.212 88.5784 239.011 88.5784V92.7554H237.729C234.802 92.7554 232.387 93.536 230.443 95.076C228.52 96.6371 227.558 99.1686 227.558 102.671V119.062H223.605V89.1269H227.558V95.3291C228.456 93.1773 229.866 91.5107 231.832 90.3294H231.853Z" fill="#141623"/>
<path d="M265.656 90.5824C267.943 91.806 269.716 93.5781 271.019 95.8987C272.323 98.2192 272.964 100.962 272.964 104.105C272.964 107.248 272.323 109.97 271.019 112.269C269.716 114.569 267.943 116.341 265.656 117.586C263.37 118.83 260.784 119.442 257.9 119.442C255.015 119.442 252.408 118.83 250.122 117.586C247.836 116.341 246.02 114.569 244.695 112.227C243.37 109.907 242.729 107.185 242.729 104.084C242.729 100.983 243.391 98.1981 244.695 95.8776C246.02 93.557 247.814 91.7849 250.122 90.5613C252.43 89.3377 255.015 88.726 257.9 88.726C260.784 88.726 263.37 89.3377 265.656 90.5613V90.5824ZM252.344 93.4093C250.635 94.2953 249.267 95.6244 248.242 97.4387C247.216 99.2529 246.682 101.468 246.682 104.105C246.682 106.742 247.195 108.957 248.242 110.75C249.289 112.544 250.656 113.873 252.344 114.759C254.054 115.645 255.891 116.067 257.9 116.067C259.908 116.067 261.682 115.624 263.37 114.759C265.058 113.894 266.425 112.544 267.451 110.75C268.498 108.957 269.011 106.742 269.011 104.105C269.011 101.468 268.498 99.2529 267.451 97.4387C266.404 95.6244 265.058 94.2742 263.37 93.4093C261.682 92.5444 259.866 92.1013 257.9 92.1013C255.934 92.1013 254.054 92.5444 252.344 93.4093Z" fill="#141623"/>
<path d="M306.126 89.1268V119.083H302.237V111.679C301.468 114.273 300.058 116.256 298.007 117.607C295.977 118.957 293.626 119.632 290.998 119.632C287.451 119.632 284.567 118.535 282.366 116.32C280.165 114.105 279.054 110.856 279.054 106.573V89.1268H282.943V106.236C282.943 109.527 283.776 112.037 285.443 113.767C287.109 115.497 289.396 116.383 292.28 116.383C295.314 116.383 297.729 115.413 299.524 113.493C301.319 111.573 302.216 108.746 302.216 105.012V89.1057H306.105L306.126 89.1268Z" fill="#141623"/>
<path d="M338.22 90.5824C340.357 91.806 342.024 93.5781 343.22 95.8987C344.417 98.2193 345.015 100.962 345.015 104.105C345.015 107.248 344.417 109.928 343.22 112.248C342.024 114.569 340.336 116.362 338.199 117.607C336.062 118.851 333.605 119.463 330.87 119.463C327.75 119.463 325.122 118.683 322.985 117.1C320.848 115.518 319.353 113.451 318.541 110.856V133.239H314.652V89.1268H318.541V97.3543C319.353 94.7595 320.848 92.671 322.985 91.1098C325.122 89.5487 327.771 88.7471 330.87 88.7471C333.648 88.7471 336.105 89.3589 338.242 90.5824H338.22ZM323.989 93.6203C322.259 94.6118 320.934 96.0042 319.951 97.8184C318.989 99.6327 318.498 101.721 318.498 104.105C318.498 106.489 318.989 108.577 319.951 110.392C320.913 112.206 322.259 113.598 323.989 114.59C325.72 115.581 327.643 116.067 329.801 116.067C333.242 116.067 335.977 114.991 338.028 112.86C340.058 110.729 341.083 107.797 341.083 104.105C341.083 100.413 340.058 97.502 338.028 95.3502C335.998 93.2195 333.242 92.1436 329.801 92.1436C327.643 92.1436 325.72 92.6288 323.989 93.6203Z" fill="#141623"/>
</g>
<path d="M295.193 62.8702H280.795C280.795 57.2587 280.589 51.7075 280.875 46.1814C281.041 43.0014 279.765 41.2732 277.112 39.9771C271.983 37.4753 266.703 36.9377 261.242 38.5554C255.154 40.3589 253.863 42.1674 253.863 48.5878C253.863 53.2649 253.863 57.9419 253.863 62.8401H240.439V2.7312H253.802V26.7145C262.84 23.6048 271.451 23.1175 280.589 26.6642V2.73622H295.193V62.8752V62.8702Z" fill="#141623"/>
<path d="M231.04 12.8036C228.407 15.2451 225.735 17.7218 223.072 20.1885C213.984 11.5878 201.365 10.779 193.065 20.0126C186.404 27.4276 186.967 39.5851 193.929 46.5932C201.415 54.1237 212.467 53.757 222.911 45.3221C225.614 47.7637 228.377 50.2655 231.115 52.7372C224.027 62.443 208.785 66.1354 195.472 61.6342C182.5 57.2535 174.683 46.136 174.889 32.371C175.105 18.5809 183.204 7.73966 196.306 3.70561C209.493 -0.353559 224.579 3.49461 231.04 12.8036Z" fill="#141623"/>
<path d="M349.208 51.7577V61.986H306.647V3.62537H319.186C319.252 5.00689 319.382 6.55922 319.387 8.11155C319.402 21.0828 319.513 34.0491 319.322 47.0153C319.272 50.6123 320.236 51.9436 323.994 51.833C332.228 51.5819 340.472 51.7577 349.203 51.7577H349.208Z" fill="#141623"/>
<path fill-rule="evenodd" clip-rule="evenodd" d="M100.763 23.7617L51.2571 6.10087L5.84844 22.3034V116.087L51.2658 99.8848L100.772 117.546L146.198 101.343V7.55323L100.763 23.7617ZM1.16719 17.7646L50.6471 0.109428C50.8592 0.0211519 51.4249 -0.0847794 51.8669 0.109428L100.763 17.5528L149.66 0.109428C149.854 0.0388071 150.049 0.00349668 150.261 0.00349668H150.279C151.216 0.00349668 152.082 0.868602 152.046 1.82198V104.222C152.046 104.946 151.551 105.635 150.88 105.882L101.382 123.537C100.993 123.678 100.551 123.678 100.162 123.537L51.2658 106.094L2.36927 123.537C1.30861 123.925 0.000458826 123.007 0.000458826 121.877V19.4772C-0.0172189 18.7357 0.477757 18.0295 1.16719 17.7646Z" fill="#98DBE4"/>
<path d="M58.3509 172.933H60.0351L55.6316 160.775H53.7895L49.3684 172.933H51.0526L52.0351 170.214H57.3684L58.3509 172.933ZM56.9123 168.916H52.4912L54.7018 162.74L56.9123 168.916Z" fill="#141623"/>
<path d="M61.3654 168.091C61.3654 171.074 63.3479 173.091 65.9269 173.091C67.6813 173.091 68.9269 172.196 69.5058 171.126V172.933H71.1199V159.951H69.5058V165.038C68.8392 163.933 67.4532 163.161 65.9444 163.161C63.3479 163.161 61.3654 165.091 61.3654 168.091ZM69.5058 168.109C69.5058 170.372 67.9971 171.688 66.2427 171.688C64.4883 171.688 62.997 170.354 62.997 168.091C62.997 165.828 64.4883 164.547 66.2427 164.547C67.9971 164.547 69.5058 165.881 69.5058 168.109Z" fill="#141623"/>
<path d="M72.6775 163.319L76.4494 172.933H78.3091L82.081 163.319H80.3792L77.3968 171.46L74.3968 163.319H72.6775Z" fill="#141623"/>
<path d="M87.7397 164.512C89.3889 164.512 90.7924 165.547 90.7748 167.424H84.7046C84.8801 165.547 86.1783 164.512 87.7397 164.512ZM92.231 169.968H90.5117C90.1608 171.003 89.2485 171.74 87.8099 171.74C86.1783 171.74 84.8099 170.67 84.6871 168.723H92.3713C92.4064 168.389 92.424 168.109 92.424 167.758C92.424 165.126 90.5994 163.161 87.8099 163.161C85.0029 163.161 83.0555 165.074 83.0555 168.109C83.0555 171.161 85.0731 173.091 87.8099 173.091C90.1959 173.091 91.7398 171.723 92.231 169.968Z" fill="#141623"/>
<path d="M101.566 172.933H103.145V167.267C103.145 164.512 101.444 163.144 99.2155 163.144C97.9173 163.144 96.7594 163.688 96.1278 164.688V163.319H94.5313V172.933H96.1278V167.617C96.1278 165.547 97.2506 164.53 98.8822 164.53C100.496 164.53 101.566 165.53 101.566 167.495V172.933Z" fill="#141623"/>
<path d="M106.104 170.302C106.104 172.231 107.069 172.933 108.771 172.933H110.209V171.582H109.034C108.052 171.582 107.701 171.249 107.701 170.302V164.635H110.209V163.319H107.701V160.898H106.104V163.319H104.859V164.635H106.104V170.302Z" fill="#141623"/>
<path d="M120.67 163.319H119.074V168.6C119.074 170.67 117.968 171.688 116.319 171.688C114.705 171.688 113.635 170.688 113.635 168.74V163.319H112.056V168.951C112.056 171.705 113.793 173.074 116.003 173.074C117.284 173.074 118.46 172.512 119.074 171.512V172.933H120.67V163.319Z" fill="#141623"/>
<path d="M124.962 167.705C124.962 165.477 126.12 164.793 127.646 164.793H128.068V163.144C126.541 163.144 125.506 163.81 124.962 164.881V163.319H123.366V172.933H124.962V167.705Z" fill="#141623"/>
<path d="M133.998 164.512C135.647 164.512 137.051 165.547 137.033 167.424H130.963C131.139 165.547 132.437 164.512 133.998 164.512ZM138.489 169.968H136.77C136.419 171.003 135.507 171.74 134.068 171.74C132.437 171.74 131.068 170.67 130.946 168.723H138.63C138.665 168.389 138.682 168.109 138.682 167.758C138.682 165.126 136.858 163.161 134.068 163.161C131.261 163.161 129.314 165.074 129.314 168.109C129.314 171.161 131.332 173.091 134.068 173.091C136.454 173.091 137.998 171.723 138.489 169.968Z" fill="#141623"/>
<path d="M145.818 170.302C145.818 172.231 146.783 172.933 148.485 172.933H149.923V171.582H148.748C147.765 171.582 147.414 171.249 147.414 170.302V164.635H149.923V163.319H147.414V160.898H145.818V163.319H144.572V164.635H145.818V170.302Z" fill="#141623"/>
<path d="M153.454 167.705C153.454 165.477 154.612 164.793 156.138 164.793H156.559V163.144C155.033 163.144 153.998 163.81 153.454 164.881V163.319H151.858V172.933H153.454V167.705Z" fill="#141623"/>
<path d="M157.806 168.091C157.806 171.074 159.788 173.091 162.35 173.091C164.122 173.091 165.367 172.179 165.946 171.144V172.933H167.56V163.319H165.946V165.074C165.385 164.074 164.157 163.161 162.367 163.161C159.788 163.161 157.806 165.091 157.806 168.091ZM165.946 168.109C165.946 170.372 164.437 171.688 162.683 171.688C160.929 171.688 159.437 170.354 159.437 168.091C159.437 165.828 160.929 164.547 162.683 164.547C164.437 164.547 165.946 165.881 165.946 168.109Z" fill="#141623"/>
<path d="M169.118 163.319L172.89 172.933H174.749L178.521 163.319H176.82L173.837 171.46L170.837 163.319H169.118Z" fill="#141623"/>
<path d="M184.18 164.512C185.829 164.512 187.233 165.547 187.215 167.424H181.145C181.32 165.547 182.619 164.512 184.18 164.512ZM188.671 169.968H186.952C186.601 171.003 185.689 171.74 184.25 171.74C182.619 171.74 181.25 170.67 181.127 168.723H188.812C188.847 168.389 188.864 168.109 188.864 167.758C188.864 165.126 187.04 163.161 184.25 163.161C181.443 163.161 179.496 165.074 179.496 168.109C179.496 171.161 181.513 173.091 184.25 173.091C186.636 173.091 188.18 171.723 188.671 169.968Z" fill="#141623"/>
<path d="M190.972 172.933H192.568V159.951H190.972V172.933Z" fill="#141623"/>
<path d="M201.563 167.705C201.563 165.477 202.721 164.793 204.247 164.793H204.668V163.144C203.142 163.144 202.107 163.81 201.563 164.881V163.319H199.966V172.933H201.563V167.705Z" fill="#141623"/>
<path d="M210.599 164.512C212.248 164.512 213.651 165.547 213.634 167.424H207.564C207.739 165.547 209.037 164.512 210.599 164.512ZM215.09 169.968H213.371C213.02 171.003 212.108 171.74 210.669 171.74C209.037 171.74 207.669 170.67 207.546 168.723H215.23C215.265 168.389 215.283 168.109 215.283 167.758C215.283 165.126 213.458 163.161 210.669 163.161C207.862 163.161 205.915 165.074 205.915 168.109C205.915 171.161 207.932 173.091 210.669 173.091C213.055 173.091 214.599 171.723 215.09 169.968Z" fill="#141623"/>
<path d="M217.39 172.933H218.987V163.319H217.39V172.933ZM218.215 161.758C218.794 161.758 219.267 161.284 219.267 160.67C219.267 160.056 218.794 159.582 218.215 159.582C217.601 159.582 217.127 160.056 217.127 160.67C217.127 161.284 217.601 161.758 218.215 161.758Z" fill="#141623"/>
<path d="M235.585 172.933H237.164V167.267C237.164 164.512 235.462 163.144 233.269 163.144C231.796 163.144 230.427 163.898 229.866 165.284C229.234 163.845 227.918 163.144 226.339 163.144C225.076 163.144 223.936 163.688 223.304 164.705V163.319H221.708V172.933H223.304V167.635C223.304 165.565 224.41 164.53 226.024 164.53C227.603 164.53 228.655 165.53 228.655 167.495V172.933H230.234V167.635C230.234 165.565 231.339 164.53 232.953 164.53C234.532 164.53 235.585 165.53 235.585 167.495V172.933Z" fill="#141623"/>
<path d="M239.186 168.091C239.186 171.074 241.169 173.091 243.73 173.091C245.502 173.091 246.748 172.179 247.327 171.144V172.933H248.941V163.319H247.327V165.074C246.765 164.074 245.537 163.161 243.748 163.161C241.169 163.161 239.186 165.091 239.186 168.091ZM247.327 168.109C247.327 170.372 245.818 171.688 244.064 171.688C242.309 171.688 240.818 170.354 240.818 168.091C240.818 165.828 242.309 164.547 244.064 164.547C245.818 164.547 247.327 165.881 247.327 168.109Z" fill="#141623"/>
<path d="M251.042 168.091C251.042 171.074 253.025 173.091 255.604 173.091C257.358 173.091 258.604 172.161 259.183 171.126V173.144C259.183 175.196 257.902 176.284 256.2 176.284C254.621 176.284 253.481 175.495 253.13 174.337H251.551C251.867 176.389 253.674 177.67 256.2 177.67C259.025 177.67 260.797 175.793 260.797 173.144V163.319H259.183V165.074C258.621 164.038 257.358 163.161 255.604 163.161C253.025 163.161 251.042 165.091 251.042 168.091ZM259.183 168.109C259.183 170.372 257.674 171.688 255.919 171.688C254.165 171.688 252.674 170.354 252.674 168.091C252.674 165.828 254.165 164.547 255.919 164.547C257.674 164.547 259.183 165.881 259.183 168.109Z" fill="#141623"/>
<path d="M263.495 172.933H265.091V163.319H263.495V172.933ZM264.319 161.758C264.898 161.758 265.372 161.284 265.372 160.67C265.372 160.056 264.898 159.582 264.319 159.582C263.705 159.582 263.231 160.056 263.231 160.67C263.231 161.284 263.705 161.758 264.319 161.758Z" fill="#141623"/>
<path d="M274.847 172.933H276.426V167.267C276.426 164.512 274.724 163.144 272.496 163.144C271.198 163.144 270.04 163.688 269.409 164.688V163.319H267.812V172.933H269.409V167.617C269.409 165.547 270.531 164.53 272.163 164.53C273.777 164.53 274.847 165.53 274.847 167.495V172.933Z" fill="#141623"/>
<path d="M283.122 164.512C284.771 164.512 286.174 165.547 286.157 167.424H280.087C280.262 165.547 281.56 164.512 283.122 164.512ZM287.613 169.968H285.894C285.543 171.003 284.63 171.74 283.192 171.74C281.56 171.74 280.192 170.67 280.069 168.723H287.753C287.788 168.389 287.806 168.109 287.806 167.758C287.806 165.126 285.981 163.161 283.192 163.161C280.385 163.161 278.437 165.074 278.437 168.109C278.437 171.161 280.455 173.091 283.192 173.091C285.578 173.091 287.122 171.723 287.613 169.968Z" fill="#141623"/>
<path d="M289.317 168.091C289.317 171.074 291.299 173.091 293.878 173.091C295.633 173.091 296.878 172.196 297.457 171.126V172.933H299.071V159.951H297.457V165.038C296.79 163.933 295.404 163.161 293.896 163.161C291.299 163.161 289.317 165.091 289.317 168.091ZM297.457 168.109C297.457 170.372 295.948 171.688 294.194 171.688C292.44 171.688 290.948 170.354 290.948 168.091C290.948 165.828 292.44 164.547 294.194 164.547C295.948 164.547 297.457 165.881 297.457 168.109Z" fill="#141623"/>
<defs>
<clipPath id="clip0_9_11506">
<rect width="166.11" height="53.1413" fill="white" transform="translate(178.905 80.0765)"/>
</clipPath>
</defs>
</svg>
