<svg width="738" height="112" viewBox="0 0 738 112" fill="none" xmlns="http://www.w3.org/2000/svg">
<path d="M308.98 86.8729H288.398C288.398 78.8512 288.103 70.9157 288.512 63.0161C288.749 58.4703 286.925 55.9999 283.134 54.147C275.801 50.5707 268.254 49.8023 260.447 52.1147C251.743 54.6928 249.898 57.2781 249.898 66.456C249.898 73.142 249.898 79.8279 249.898 86.8298H230.709V0.903809H249.812V35.188C262.731 30.7427 275.04 30.0461 288.103 35.1162V0.91099H308.98V86.8801V86.8729Z" fill="#141623"/>
<path d="M217.273 15.3026C213.51 18.7928 209.689 22.3332 205.883 25.8593C192.892 13.5647 174.852 12.4085 162.988 25.608C153.466 36.2078 154.27 53.5869 164.223 63.605C174.924 74.37 190.723 73.8457 205.653 61.7881C209.517 65.2783 213.467 68.8546 217.38 72.3879C207.247 86.2625 185.459 91.5408 166.428 85.1063C147.886 78.844 136.711 62.9515 137.006 43.2743C137.314 23.5613 148.891 8.06371 167.62 2.29701C186.471 -3.5056 208.037 1.99539 217.273 15.3026Z" fill="#141623"/>
<path d="M386.194 70.9875V85.609H325.353V2.18213H343.278C343.372 4.15703 343.558 6.37609 343.565 8.59516C343.587 27.1376 343.745 45.673 343.472 64.2083C343.4 69.3502 344.779 71.2533 350.151 71.0953C361.921 70.7362 373.706 70.9875 386.187 70.9875H386.194Z" fill="#141623"/>
<path d="M470.477 12.5026C476.534 16.8377 480.698 22.715 482.928 30.1763H474.936C472.959 25.0493 469.636 20.881 464.925 17.713C460.214 14.5451 454.661 12.9612 448.226 12.9612C442.673 12.9612 437.668 14.2533 433.167 16.8794C428.666 19.4637 425.175 23.2152 422.609 28.0505C420.043 32.8857 418.781 38.513 418.781 44.9739C418.781 51.4348 420.085 57.2704 422.651 62.1057C425.217 66.9409 428.792 70.6507 433.377 73.2768C437.92 75.8611 443.136 77.195 448.983 77.195C454.156 77.195 458.91 76.0695 463.2 73.777C467.491 71.4844 470.982 68.1914 473.632 63.8564C476.282 59.5213 477.838 54.4359 478.259 48.5586H446.207V42.8063H484.905V49.5173C484.4 56.0199 482.549 61.8556 479.394 67.066C476.24 72.2764 471.949 76.3613 466.607 79.3625C461.265 82.3637 455.124 83.8643 448.268 83.8643C440.991 83.8643 434.471 82.2386 428.792 78.9457C423.114 75.6527 418.697 71.0675 415.542 65.1485C412.388 59.2295 410.831 52.5185 410.831 44.9739C410.831 37.4292 412.388 30.7599 415.542 24.7992C418.697 18.8385 423.072 14.2533 428.708 10.9604C434.345 7.66739 440.822 6.04175 448.141 6.04175C456.891 6.04175 464.294 8.20928 470.351 12.5443L470.477 12.5026Z" fill="#141623"/>
<path d="M515.233 26.2578C519.103 23.9652 523.814 22.7981 529.324 22.7981V31.0514H526.8C521.038 31.0514 516.284 32.5936 512.457 35.6365C508.671 38.7211 506.778 43.7231 506.778 50.6425V83.0303H498.996V23.8819H506.778V36.1367C508.545 31.885 511.321 28.5921 515.191 26.2578H515.233Z" fill="#141623"/>
<path d="M581.777 26.7582C586.277 29.1758 589.769 32.6772 592.335 37.2624C594.9 41.8475 596.162 47.2664 596.162 53.4772C596.162 59.6879 594.9 65.0651 592.335 69.6086C589.769 74.152 586.277 77.6534 581.777 80.1127C577.276 82.572 572.186 83.7808 566.508 83.7808C560.829 83.7808 555.697 82.572 551.197 80.1127C546.696 77.6534 543.121 74.152 540.513 69.5252C537.905 64.94 536.643 59.5629 536.643 53.4355C536.643 47.308 537.947 41.8058 540.513 37.2207C543.121 32.6355 546.654 29.1342 551.197 26.7165C555.74 24.2989 560.829 23.0901 566.508 23.0901C572.186 23.0901 577.276 24.2989 581.777 26.7165V26.7582ZM555.571 32.3438C552.206 34.0945 549.514 36.7205 547.495 40.3053C545.476 43.89 544.425 48.2667 544.425 53.4772C544.425 58.6876 545.434 63.0643 547.495 66.6074C549.556 70.1504 552.248 72.7765 555.571 74.5272C558.936 76.2779 562.554 77.1115 566.508 77.1115C570.462 77.1115 573.953 76.2362 577.276 74.5272C580.599 72.8182 583.291 70.1504 585.31 66.6074C587.371 63.0643 588.381 58.6876 588.381 53.4772C588.381 48.2667 587.371 43.89 585.31 40.3053C583.249 36.7205 580.599 34.0528 577.276 32.3438C573.953 30.6348 570.378 29.7594 566.508 29.7594C562.638 29.7594 558.936 30.6348 555.571 32.3438Z" fill="#141623"/>
<path d="M661.445 23.882V83.0722H653.789V68.4414C652.275 73.5684 649.499 77.4866 645.461 80.1543C641.465 82.8221 636.838 84.1559 631.664 84.1559C624.682 84.1559 619.003 81.9884 614.67 77.6117C610.338 73.2349 608.151 66.8157 608.151 58.354V23.882H615.806V57.6871C615.806 64.1897 617.447 69.15 620.728 72.568C624.009 75.986 628.509 77.7367 634.188 77.7367C640.161 77.7367 644.914 75.8193 648.447 72.0261C651.981 68.2329 653.747 62.6474 653.747 55.2695V23.8403H661.403L661.445 23.882Z" fill="#141623"/>
<path d="M724.624 26.7583C728.83 29.1759 732.111 32.6773 734.466 37.2624C736.822 41.8476 738 47.2664 738 53.4772C738 59.688 736.822 64.9818 734.466 69.5669C732.111 74.1521 728.788 77.6952 724.582 80.1545C720.375 82.6138 715.538 83.8226 710.154 83.8226C704.013 83.8226 698.839 82.2803 694.632 79.1541C690.426 76.0278 687.482 71.9429 685.883 66.8158V111.042H678.228V23.8821H685.883V40.1386C687.482 35.0115 690.426 30.8849 694.632 27.8004C698.839 24.7158 704.055 23.1318 710.154 23.1318C715.622 23.1318 720.459 24.3406 724.666 26.7583H724.624ZM696.609 32.7607C693.202 34.7198 690.594 37.4709 688.659 41.0556C686.767 44.6404 685.799 48.767 685.799 53.4772C685.799 58.1874 686.767 62.3141 688.659 65.8988C690.552 69.4836 693.202 72.2347 696.609 74.1938C700.017 76.1529 703.802 77.1116 708.051 77.1116C714.823 77.1116 720.207 74.9857 724.245 70.7757C728.241 66.5657 730.26 60.7718 730.26 53.4772C730.26 46.1827 728.241 40.4304 724.245 36.1787C720.249 31.9687 714.823 29.8428 708.051 29.8428C703.802 29.8428 700.017 30.8015 696.609 32.7607Z" fill="#141623"/>
<path fill-rule="evenodd" clip-rule="evenodd" d="M74.2235 25.4383L37.7567 12.2973L6.00034 23.7433V90.0101L37.763 78.5643L74.2301 91.7054L105.999 80.2589V13.9878L74.2235 25.4383ZM110.241 6.08142C110.385 6.02888 110.528 6.0026 110.684 6.0026H110.697C111.387 6.0026 112.025 6.64631 111.999 7.3557V83.5494C111.999 84.0881 111.635 84.6004 111.14 84.7843L74.6793 97.9212C74.3928 98.0263 74.0673 98.0263 73.7808 97.9212L37.763 84.942L1.74523 97.9212C0.963937 98.2102 0.000337977 97.5271 0.000337977 96.6863V20.4926C-0.0126836 19.9408 0.351922 19.4153 0.859765 19.2183L37.3073 6.08142C37.4635 6.01574 37.8802 5.93692 38.2058 6.08142L74.2235 19.0606L110.241 6.08142ZM110.69 12.0026C110.688 12.0026 110.686 12.0026 110.684 12.0026Z" fill="#98DBE4"/>
</svg>
