<svg width="244" height="245" viewBox="0 0 244 245" fill="none" xmlns="http://www.w3.org/2000/svg">
<path d="M241.133 0.00562344C240.793 0.00562344 240.481 0.0624105 240.169 0.175985L161.701 28.2288L83.2339 0.175985C82.5247 -0.136344 81.6169 0.034017 81.2765 0.175985L1.87306 28.5695C0.766686 28.9954 -0.0276322 30.1312 0.000736307 31.3237V196.006C0.000736307 197.823 2.10001 199.3 3.80212 198.675L82.2694 170.622L160.737 198.675C161.361 198.902 162.07 198.902 162.694 198.675L242.126 170.282C243.204 169.884 243.998 168.777 243.998 167.613V2.93016C244.055 1.39691 242.665 0.00562344 241.161 0.00562344H241.133Z" fill="#98DBE4"/>
<path d="M158.399 132.642H142.625C142.625 126.494 142.399 120.413 142.713 114.359C142.895 110.875 141.497 108.982 138.591 107.562C132.972 104.821 127.187 104.232 121.205 106.004C114.534 107.98 113.12 109.961 113.12 116.995C113.12 122.119 113.12 127.243 113.12 132.609H98.4139V66.7573H113.054V93.0319C122.955 89.6251 132.388 89.0913 142.399 92.9769V66.7628H158.399V132.647V132.642Z" fill="#141623"/>
<path d="M88.1162 77.7925C85.2322 80.4673 82.3043 83.1806 79.3873 85.8829C69.4312 76.4606 55.6059 75.5746 46.5138 85.6903C39.216 93.8138 39.8324 107.133 47.4605 114.81C55.661 123.06 67.769 122.659 79.2112 113.418C82.1722 116.093 85.1992 118.833 88.1987 121.541C80.433 132.174 63.7349 136.22 49.1501 131.288C34.9396 126.489 26.3759 114.309 26.6015 99.2294C26.8382 84.1218 35.7101 72.2448 50.0637 67.8254C64.5109 63.3784 81.0384 67.5942 88.1162 77.7925Z" fill="#141623"/>
<path d="M217.574 120.468V131.673H170.947V67.7369H184.684C184.756 69.2505 184.899 70.9511 184.904 72.6517C184.921 86.8622 185.042 101.067 184.833 115.272C184.778 119.213 185.834 120.671 189.951 120.55C198.972 120.275 208.003 120.468 217.569 120.468H217.574Z" fill="#141623"/>
<path d="M9.35146 239.732H10.9835L6.71646 227.951H4.93146L0.647461 239.732H2.27946L3.23146 237.097H8.39946L9.35146 239.732ZM7.95746 235.839H3.67346L5.81546 229.855L7.95746 235.839Z" fill="#141623"/>
<path d="M12.2725 235.04C12.2725 237.93 14.1935 239.885 16.6925 239.885C18.3925 239.885 19.5995 239.018 20.1605 237.981V239.732H21.7245V227.152H20.1605V232.082C19.5145 231.011 18.1715 230.263 16.7095 230.263C14.1935 230.263 12.2725 232.133 12.2725 235.04ZM20.1605 235.057C20.1605 237.25 18.6985 238.525 16.9985 238.525C15.2985 238.525 13.8535 237.233 13.8535 235.04C13.8535 232.847 15.2985 231.606 16.9985 231.606C18.6985 231.606 20.1605 232.898 20.1605 235.057Z" fill="#141623"/>
<path d="M23.2338 230.416L26.8888 239.732H28.6908L32.3458 230.416H30.6968L27.8068 238.304L24.8998 230.416H23.2338Z" fill="#141623"/>
<path d="M37.8291 231.572C39.4271 231.572 40.7871 232.575 40.7701 234.394H34.8881C35.0581 232.575 36.3161 231.572 37.8291 231.572ZM42.1811 236.859H40.5151C40.1751 237.862 39.2911 238.576 37.8971 238.576C36.3161 238.576 34.9901 237.539 34.8711 235.652H42.3171C42.3511 235.329 42.3681 235.057 42.3681 234.717C42.3681 232.167 40.6001 230.263 37.8971 230.263C35.1771 230.263 33.2901 232.116 33.2901 235.057C33.2901 238.015 35.2451 239.885 37.8971 239.885C40.2091 239.885 41.7051 238.559 42.1811 236.859Z" fill="#141623"/>
<path d="M51.2271 239.732H52.7571V234.241C52.7571 231.572 51.1081 230.246 48.9491 230.246C47.6911 230.246 46.5691 230.773 45.9571 231.742V230.416H44.4101V239.732H45.9571V234.581C45.9571 232.575 47.0451 231.589 48.6261 231.589C50.1901 231.589 51.2271 232.558 51.2271 234.462V239.732Z" fill="#141623"/>
<path d="M55.6241 237.182C55.6241 239.052 56.5591 239.732 58.2081 239.732H59.6021V238.423H58.4631C57.5111 238.423 57.1711 238.1 57.1711 237.182V231.691H59.6021V230.416H57.1711V228.07H55.6241V230.416H54.4171V231.691H55.6241V237.182Z" fill="#141623"/>
<path d="M69.7385 230.416H68.1915V235.533C68.1915 237.539 67.1205 238.525 65.5225 238.525C63.9585 238.525 62.9215 237.556 62.9215 235.669V230.416H61.3915V235.873C61.3915 238.542 63.0745 239.868 65.2165 239.868C66.4575 239.868 67.5965 239.324 68.1915 238.355V239.732H69.7385V230.416Z" fill="#141623"/>
<path d="M73.8975 234.666C73.8975 232.507 75.0195 231.844 76.4985 231.844H76.9065V230.246C75.4275 230.246 74.4245 230.892 73.8975 231.929V230.416H72.3505V239.732H73.8975V234.666Z" fill="#141623"/>
<path d="M82.6533 231.572C84.2513 231.572 85.6113 232.575 85.5943 234.394H79.7123C79.8823 232.575 81.1403 231.572 82.6533 231.572ZM87.0053 236.859H85.3393C84.9993 237.862 84.1153 238.576 82.7213 238.576C81.1403 238.576 79.8143 237.539 79.6953 235.652H87.1413C87.1753 235.329 87.1923 235.057 87.1923 234.717C87.1923 232.167 85.4243 230.263 82.7213 230.263C80.0013 230.263 78.1143 232.116 78.1143 235.057C78.1143 238.015 80.0693 239.885 82.7213 239.885C85.0333 239.885 86.5293 238.559 87.0053 236.859Z" fill="#141623"/>
<path d="M94.1066 237.182C94.1066 239.052 95.0416 239.732 96.6906 239.732H98.0846V238.423H96.9456C95.9936 238.423 95.6536 238.1 95.6536 237.182V231.691H98.0846V230.416H95.6536V228.07H94.1066V230.416H92.8996V231.691H94.1066V237.182Z" fill="#141623"/>
<path d="M101.506 234.666C101.506 232.507 102.628 231.844 104.107 231.844H104.515V230.246C103.036 230.246 102.033 230.892 101.506 231.929V230.416H99.9589V239.732H101.506V234.666Z" fill="#141623"/>
<path d="M105.723 235.04C105.723 237.93 107.644 239.885 110.126 239.885C111.843 239.885 113.05 239.001 113.611 237.998V239.732H115.175V230.416H113.611V232.116C113.067 231.147 111.877 230.263 110.143 230.263C107.644 230.263 105.723 232.133 105.723 235.04ZM113.611 235.057C113.611 237.25 112.149 238.525 110.449 238.525C108.749 238.525 107.304 237.233 107.304 235.04C107.304 232.847 108.749 231.606 110.449 231.606C112.149 231.606 113.611 232.898 113.611 235.057Z" fill="#141623"/>
<path d="M116.684 230.416L120.339 239.732H122.141L125.796 230.416H124.147L121.257 238.304L118.35 230.416H116.684Z" fill="#141623"/>
<path d="M131.279 231.572C132.877 231.572 134.237 232.575 134.22 234.394H128.338C128.508 232.575 129.766 231.572 131.279 231.572ZM135.631 236.859H133.965C133.625 237.862 132.741 238.576 131.347 238.576C129.766 238.576 128.44 237.539 128.321 235.652H135.767C135.801 235.329 135.818 235.057 135.818 234.717C135.818 232.167 134.05 230.263 131.347 230.263C128.627 230.263 126.74 232.116 126.74 235.057C126.74 238.015 128.695 239.885 131.347 239.885C133.659 239.885 135.155 238.559 135.631 236.859Z" fill="#141623"/>
<path d="M137.86 239.732H139.407V227.152H137.86V239.732Z" fill="#141623"/>
<path d="M148.123 234.666C148.123 232.507 149.245 231.844 150.724 231.844H151.132V230.246C149.653 230.246 148.65 230.892 148.123 231.929V230.416H146.576V239.732H148.123V234.666Z" fill="#141623"/>
<path d="M156.879 231.572C158.477 231.572 159.837 232.575 159.82 234.394H153.938C154.108 232.575 155.366 231.572 156.879 231.572ZM161.231 236.859H159.565C159.225 237.862 158.341 238.576 156.947 238.576C155.366 238.576 154.04 237.539 153.921 235.652H161.367C161.401 235.329 161.418 235.057 161.418 234.717C161.418 232.167 159.65 230.263 156.947 230.263C154.227 230.263 152.34 232.116 152.34 235.057C152.34 238.015 154.295 239.885 156.947 239.885C159.259 239.885 160.755 238.559 161.231 236.859Z" fill="#141623"/>
<path d="M163.46 239.732H165.007V230.416H163.46V239.732ZM164.259 228.903C164.82 228.903 165.279 228.444 165.279 227.849C165.279 227.254 164.82 226.795 164.259 226.795C163.664 226.795 163.205 227.254 163.205 227.849C163.205 228.444 163.664 228.903 164.259 228.903Z" fill="#141623"/>
<path d="M181.09 239.732H182.62V234.241C182.62 231.572 180.971 230.246 178.846 230.246C177.418 230.246 176.093 230.977 175.549 232.32C174.937 230.926 173.662 230.246 172.132 230.246C170.908 230.246 169.803 230.773 169.191 231.759V230.416H167.644V239.732H169.191V234.598C169.191 232.592 170.262 231.589 171.826 231.589C173.356 231.589 174.376 232.558 174.376 234.462V239.732H175.906V234.598C175.906 232.592 176.976 231.589 178.54 231.589C180.07 231.589 181.09 232.558 181.09 234.462V239.732Z" fill="#141623"/>
<path d="M184.58 235.04C184.58 237.93 186.501 239.885 188.983 239.885C190.7 239.885 191.907 239.001 192.468 237.998V239.732H194.032V230.416H192.468V232.116C191.924 231.147 190.734 230.263 189 230.263C186.501 230.263 184.58 232.133 184.58 235.04ZM192.468 235.057C192.468 237.25 191.006 238.525 189.306 238.525C187.606 238.525 186.161 237.233 186.161 235.04C186.161 232.847 187.606 231.606 189.306 231.606C191.006 231.606 192.468 232.898 192.468 235.057Z" fill="#141623"/>
<path d="M196.068 235.04C196.068 237.93 197.989 239.885 200.488 239.885C202.188 239.885 203.395 238.984 203.956 237.981V239.936C203.956 241.925 202.715 242.979 201.066 242.979C199.536 242.979 198.431 242.214 198.091 241.092H196.561C196.867 243.081 198.618 244.322 201.066 244.322C203.803 244.322 205.52 242.503 205.52 239.936V230.416H203.956V232.116C203.412 231.113 202.188 230.263 200.488 230.263C197.989 230.263 196.068 232.133 196.068 235.04ZM203.956 235.057C203.956 237.25 202.494 238.525 200.794 238.525C199.094 238.525 197.649 237.233 197.649 235.04C197.649 232.847 199.094 231.606 200.794 231.606C202.494 231.606 203.956 232.898 203.956 235.057Z" fill="#141623"/>
<path d="M208.135 239.732H209.682V230.416H208.135V239.732ZM208.934 228.903C209.495 228.903 209.954 228.444 209.954 227.849C209.954 227.254 209.495 226.795 208.934 226.795C208.339 226.795 207.88 227.254 207.88 227.849C207.88 228.444 208.339 228.903 208.934 228.903Z" fill="#141623"/>
<path d="M219.135 239.732H220.665V234.241C220.665 231.572 219.016 230.246 216.857 230.246C215.599 230.246 214.477 230.773 213.865 231.742V230.416H212.318V239.732H213.865V234.581C213.865 232.575 214.953 231.589 216.534 231.589C218.098 231.589 219.135 232.558 219.135 234.462V239.732Z" fill="#141623"/>
<path d="M227.153 231.572C228.751 231.572 230.111 232.575 230.094 234.394H224.212C224.382 232.575 225.64 231.572 227.153 231.572ZM231.505 236.859H229.839C229.499 237.862 228.615 238.576 227.221 238.576C225.64 238.576 224.314 237.539 224.195 235.652H231.641C231.675 235.329 231.692 235.057 231.692 234.717C231.692 232.167 229.924 230.263 227.221 230.263C224.501 230.263 222.614 232.116 222.614 235.057C222.614 238.015 224.569 239.885 227.221 239.885C229.533 239.885 231.029 238.559 231.505 236.859Z" fill="#141623"/>
<path d="M233.156 235.04C233.156 237.93 235.077 239.885 237.576 239.885C239.276 239.885 240.483 239.018 241.044 237.981V239.732H242.608V227.152H241.044V232.082C240.398 231.011 239.055 230.263 237.593 230.263C235.077 230.263 233.156 232.133 233.156 235.04ZM241.044 235.057C241.044 237.25 239.582 238.525 237.882 238.525C236.182 238.525 234.737 237.233 234.737 235.04C234.737 232.847 236.182 231.606 237.882 231.606C239.582 231.606 241.044 232.898 241.044 235.057Z" fill="#141623"/>
</svg>
