<svg width="259" height="211" viewBox="0 0 259 211" fill="none" xmlns="http://www.w3.org/2000/svg">
<g clip-path="url(#clip0_9_11503)">
<path d="M78.9214 125.529C81.8401 127.61 83.8466 130.432 84.9209 134.014H81.0699C80.1172 131.553 78.516 129.551 76.246 128.031C73.9759 126.51 71.3004 125.749 68.1994 125.749C65.5239 125.749 63.112 126.37 60.9432 127.63C58.7745 128.871 57.0922 130.672 55.8558 132.993C54.6195 135.315 54.0114 138.016 54.0114 141.118C54.0114 144.22 54.6397 147.021 55.8761 149.343C57.1125 151.664 58.8353 153.445 61.0446 154.706C63.2336 155.946 65.7469 156.587 68.5642 156.587C71.0572 156.587 73.3476 156.046 75.4149 154.946C77.4823 153.845 79.1646 152.264 80.4415 150.183C81.7185 148.102 82.4684 145.66 82.6711 142.839H67.2265V140.077H85.8735V143.299C85.6303 146.421 84.7385 149.222 83.2183 151.724C81.6982 154.225 79.6308 156.186 77.0567 157.627C74.4826 159.068 71.5234 159.788 68.2196 159.788C64.7132 159.788 61.5716 159.008 58.8353 157.427C56.0991 155.846 53.9709 153.645 52.4507 150.803C50.9306 147.962 50.1807 144.74 50.1807 141.118C50.1807 137.496 50.9306 134.294 52.4507 131.433C53.9709 128.571 56.0788 126.37 58.7948 124.789C61.5108 123.208 64.6321 122.427 68.1588 122.427C72.3747 122.427 75.9419 123.468 78.8606 125.549L78.9214 125.529Z" fill="#141623"/>
<path d="M100.487 132.133C102.352 131.032 104.622 130.472 107.277 130.472V134.434H106.061C103.284 134.434 100.994 135.175 99.1494 136.635C97.3252 138.116 96.4131 140.518 96.4131 143.839V159.388H92.6635V130.992H96.4131V136.876C97.2644 134.834 98.6021 133.253 100.467 132.133H100.487Z" fill="#141623"/>
<path d="M132.552 132.373C134.721 133.534 136.403 135.215 137.639 137.416C138.876 139.617 139.484 142.219 139.484 145.2C139.484 148.182 138.876 150.763 137.639 152.945C136.403 155.126 134.721 156.807 132.552 157.987C130.383 159.168 127.931 159.748 125.194 159.748C122.458 159.748 119.985 159.168 117.817 157.987C115.648 156.807 113.925 155.126 112.668 152.905C111.412 150.703 110.804 148.122 110.804 145.18C110.804 142.239 111.432 139.597 112.668 137.396C113.925 135.195 115.628 133.514 117.817 132.353C120.006 131.192 122.458 130.612 125.194 130.612C127.931 130.612 130.383 131.192 132.552 132.353V132.373ZM119.925 135.055C118.303 135.895 117.006 137.156 116.033 138.877C115.06 140.598 114.553 142.699 114.553 145.2C114.553 147.702 115.04 149.803 116.033 151.504C117.026 153.205 118.323 154.465 119.925 155.306C121.546 156.146 123.289 156.547 125.194 156.547C127.1 156.547 128.782 156.126 130.383 155.306C131.984 154.485 133.281 153.205 134.254 151.504C135.248 149.803 135.734 147.702 135.734 145.2C135.734 142.699 135.248 140.598 134.254 138.877C133.261 137.156 131.984 135.875 130.383 135.055C128.782 134.234 127.059 133.814 125.194 133.814C123.33 133.814 121.546 134.234 119.925 135.055Z" fill="#141623"/>
<path d="M170.94 130.992V159.408H167.251V152.384C166.522 154.846 165.184 156.727 163.238 158.007C161.313 159.288 159.083 159.928 156.59 159.928C153.226 159.928 150.489 158.888 148.402 156.787C146.314 154.685 145.26 151.604 145.26 147.541V130.992H148.949V147.221C148.949 150.343 149.739 152.724 151.32 154.365C152.901 156.006 155.07 156.847 157.806 156.847C160.684 156.847 162.975 155.926 164.677 154.105C166.38 152.284 167.231 149.603 167.231 146.061V130.972H170.92L170.94 130.992Z" fill="#141623"/>
<path d="M201.384 132.373C203.41 133.534 204.991 135.215 206.126 137.416C207.261 139.617 207.829 142.219 207.829 145.2C207.829 148.182 207.261 150.723 206.126 152.925C204.991 155.126 203.39 156.827 201.363 158.007C199.337 159.188 197.006 159.768 194.411 159.768C191.452 159.768 188.959 159.028 186.932 157.527C184.905 156.026 183.487 154.065 182.716 151.604V172.836H179.027V130.992H182.716V138.797C183.487 136.335 184.905 134.354 186.932 132.873C188.959 131.393 191.472 130.632 194.411 130.632C197.046 130.632 199.377 131.212 201.404 132.373H201.384ZM187.885 135.255C186.243 136.195 184.986 137.516 184.054 139.237C183.142 140.958 182.676 142.939 182.676 145.2C182.676 147.461 183.142 149.443 184.054 151.164C184.966 152.885 186.243 154.205 187.885 155.146C189.527 156.086 191.351 156.547 193.398 156.547C196.661 156.547 199.255 155.526 201.201 153.505C203.127 151.484 204.1 148.702 204.1 145.2C204.1 141.698 203.127 138.937 201.201 136.896C199.276 134.874 196.661 133.854 193.398 133.854C191.351 133.854 189.527 134.314 187.885 135.255Z" fill="#141623"/>
</g>
<path d="M160.569 106.086H146.911C146.911 100.763 146.716 95.4975 146.988 90.2556C147.145 87.2391 145.935 85.5998 143.418 84.3704C138.553 81.9972 133.545 81.4873 128.365 83.0218C122.589 84.7325 121.364 86.4481 121.364 92.5382C121.364 96.9747 121.364 101.411 121.364 106.057H108.631V49.04H121.307V71.7898C129.88 68.8401 138.048 68.3778 146.716 71.7422V49.0448H160.569V106.091V106.086Z" fill="#141623"/>
<path d="M99.7155 58.5949C97.2184 60.9109 94.6833 63.2602 92.1576 65.6C83.5371 57.4417 71.5665 56.6745 63.6942 65.4332C57.3753 72.4669 57.909 83.999 64.5138 90.6467C71.6142 97.79 82.0979 97.4421 92.0051 89.4411C94.5689 91.757 97.1898 94.1302 99.7869 96.4747C93.063 105.681 78.6049 109.184 65.9768 104.914C53.6726 100.759 46.2577 90.2131 46.4531 77.156C46.658 64.0751 54.3398 53.7915 66.7678 49.9649C79.2769 46.1145 93.5872 49.7647 99.7155 58.5949Z" fill="#141623"/>
<path d="M211.806 95.545V105.247H171.434V49.8882H183.328C183.39 51.1987 183.514 52.6712 183.519 54.1436C183.533 66.4478 183.638 78.7472 183.457 91.0465C183.409 94.4585 184.324 95.7214 187.889 95.6165C195.699 95.3782 203.519 95.545 211.801 95.545H211.806Z" fill="#141623"/>
<path fill-rule="evenodd" clip-rule="evenodd" d="M252.816 6.2731V175.686L171.078 204.902L87.0325 174.856L5.3093 204.072V34.6702L87.0176 5.4536L171.063 35.4996L252.816 6.2731ZM1.9815 30.2224L85.9821 0.186166C86.3423 0.0359851 87.3026 -0.144233 88.0529 0.186166L171.063 29.862L254.073 0.186166C254.404 0.0660214 254.734 0.0059488 255.094 0.0059488H255.124C256.714 0.0059488 258.185 1.47773 258.125 3.09969V177.31C258.125 178.542 257.285 179.713 256.144 180.134L172.114 210.17C171.453 210.41 170.703 210.41 170.043 210.17L87.0325 180.494L4.02225 210.17C2.22159 210.831 0.000778936 209.269 0.000778936 207.346V33.136C-0.029232 31.8744 0.811075 30.673 1.9815 30.2224Z" fill="#141623"/>
<defs>
<clipPath id="clip0_9_11503">
<rect width="157.567" height="50.4082" fill="white" transform="translate(50.2617 122.407)"/>
</clipPath>
</defs>
</svg>
