<svg width="259" height="256" viewBox="0 0 259 256" fill="none" xmlns="http://www.w3.org/2000/svg">
<g clip-path="url(#clip0_9_11500)">
<path d="M78.9214 125.529C81.8401 127.61 83.8466 130.432 84.9209 134.014H81.0699C80.1172 131.552 78.516 129.551 76.246 128.031C73.9759 126.51 71.3004 125.749 68.1994 125.749C65.5239 125.749 63.112 126.37 60.9432 127.63C58.7745 128.871 57.0922 130.672 55.8558 132.993C54.6195 135.315 54.0114 138.016 54.0114 141.118C54.0114 144.22 54.6397 147.021 55.8761 149.342C57.1125 151.664 58.8353 153.445 61.0446 154.705C63.2336 155.946 65.7469 156.586 68.5642 156.586C71.0572 156.586 73.3476 156.046 75.4149 154.946C77.4823 153.845 79.1646 152.264 80.4415 150.183C81.7185 148.102 82.4684 145.66 82.6711 142.839H67.2265V140.077H85.8735V143.299C85.6303 146.421 84.7385 149.222 83.2183 151.724C81.6982 154.225 79.6308 156.186 77.0567 157.627C74.4826 159.068 71.5234 159.788 68.2196 159.788C64.7132 159.788 61.5716 159.008 58.8353 157.427C56.0991 155.846 53.9709 153.645 52.4507 150.803C50.9306 147.962 50.1807 144.74 50.1807 141.118C50.1807 137.496 50.9306 134.294 52.4507 131.432C53.9709 128.571 56.0788 126.37 58.7948 124.789C61.5108 123.208 64.6321 122.427 68.1588 122.427C72.3747 122.427 75.9419 123.468 78.8606 125.549L78.9214 125.529Z" fill="#141623"/>
<path d="M100.487 132.133C102.352 131.032 104.622 130.472 107.277 130.472V134.434H106.061C103.284 134.434 100.994 135.175 99.1494 136.635C97.3252 138.116 96.4131 140.518 96.4131 143.839V159.388H92.6635V130.992H96.4131V136.876C97.2644 134.834 98.6021 133.253 100.467 132.133H100.487Z" fill="#141623"/>
<path d="M132.552 132.373C134.721 133.534 136.403 135.215 137.639 137.416C138.876 139.617 139.484 142.218 139.484 145.2C139.484 148.182 138.876 150.763 137.639 152.944C136.403 155.126 134.721 156.807 132.552 157.987C130.383 159.168 127.931 159.748 125.194 159.748C122.458 159.748 119.985 159.168 117.817 157.987C115.648 156.807 113.925 155.126 112.668 152.904C111.412 150.703 110.804 148.122 110.804 145.18C110.804 142.238 111.432 139.597 112.668 137.396C113.925 135.195 115.628 133.514 117.817 132.353C120.006 131.192 122.458 130.612 125.194 130.612C127.931 130.612 130.383 131.192 132.552 132.353V132.373ZM119.925 135.054C118.303 135.895 117.006 137.156 116.033 138.877C115.06 140.598 114.553 142.699 114.553 145.2C114.553 147.702 115.04 149.803 116.033 151.504C117.026 153.205 118.323 154.465 119.925 155.306C121.546 156.146 123.289 156.546 125.194 156.546C127.1 156.546 128.782 156.126 130.383 155.306C131.984 154.485 133.281 153.205 134.254 151.504C135.248 149.803 135.734 147.702 135.734 145.2C135.734 142.699 135.248 140.598 134.254 138.877C133.261 137.156 131.984 135.875 130.383 135.054C128.782 134.234 127.059 133.814 125.194 133.814C123.33 133.814 121.546 134.234 119.925 135.054Z" fill="#141623"/>
<path d="M170.94 130.992V159.408H167.251V152.384C166.522 154.846 165.184 156.727 163.238 158.007C161.313 159.288 159.083 159.928 156.59 159.928C153.226 159.928 150.489 158.888 148.402 156.787C146.314 154.685 145.26 151.604 145.26 147.541V130.992H148.949V147.221C148.949 150.343 149.739 152.724 151.32 154.365C152.901 156.006 155.07 156.847 157.806 156.847C160.684 156.847 162.975 155.926 164.677 154.105C166.38 152.284 167.231 149.603 167.231 146.061V130.972H170.92L170.94 130.992Z" fill="#141623"/>
<path d="M201.384 132.373C203.41 133.534 204.991 135.215 206.126 137.416C207.261 139.617 207.829 142.218 207.829 145.2C207.829 148.182 207.261 150.723 206.126 152.924C204.991 155.126 203.39 156.827 201.363 158.007C199.337 159.188 197.006 159.768 194.411 159.768C191.452 159.768 188.959 159.028 186.932 157.527C184.905 156.026 183.487 154.065 182.716 151.604V172.836H179.027V130.992H182.716V138.797C183.487 136.335 184.905 134.354 186.932 132.873C188.959 131.392 191.472 130.632 194.411 130.632C197.046 130.632 199.377 131.212 201.404 132.373H201.384ZM187.885 135.255C186.243 136.195 184.986 137.516 184.054 139.237C183.142 140.958 182.676 142.939 182.676 145.2C182.676 147.461 183.142 149.442 184.054 151.163C184.966 152.884 186.243 154.205 187.885 155.146C189.527 156.086 191.351 156.546 193.398 156.546C196.661 156.546 199.255 155.526 201.201 153.505C203.127 151.484 204.1 148.702 204.1 145.2C204.1 141.698 203.127 138.937 201.201 136.895C199.276 134.874 196.661 133.854 193.398 133.854C191.351 133.854 189.527 134.314 187.885 135.255Z" fill="#141623"/>
</g>
<path d="M160.569 106.086H146.911C146.911 100.763 146.716 95.4973 146.988 90.2555C147.145 87.239 145.935 85.5997 143.418 84.3702C138.553 81.9971 133.545 81.4872 128.365 83.0217C122.589 84.7324 121.364 86.4479 121.364 92.5381C121.364 96.9746 121.364 101.411 121.364 106.057H108.631V49.0399H121.307V71.7897C129.88 68.84 138.048 68.3777 146.716 71.7421V49.0447H160.569V106.091V106.086Z" fill="#141623"/>
<path d="M99.7155 58.5948C97.2184 60.9108 94.6833 63.2601 92.1576 65.5999C83.5371 57.4416 71.5665 56.6744 63.6942 65.4331C57.3753 72.4668 57.909 83.9989 64.5138 90.6466C71.6142 97.7899 82.0979 97.442 92.0051 89.441C94.5689 91.7569 97.1898 94.1301 99.7869 96.4746C93.063 105.681 78.6049 109.184 65.9768 104.914C53.6726 100.759 46.2577 90.2129 46.4531 77.1559C46.658 64.075 54.3398 53.7913 66.7678 49.9648C79.2769 46.1144 93.5872 49.7646 99.7155 58.5948Z" fill="#141623"/>
<path d="M211.806 95.5449V105.247H171.434V49.8881H183.328C183.39 51.1985 183.514 52.671 183.519 54.1435C183.533 66.4477 183.638 78.747 183.457 91.0464C183.409 94.4584 184.324 95.7212 187.889 95.6164C195.699 95.3781 203.519 95.5449 211.801 95.5449H211.806Z" fill="#141623"/>
<path fill-rule="evenodd" clip-rule="evenodd" d="M252.816 6.2731V175.686L171.078 204.902L87.0325 174.856L5.3093 204.072V34.6702L87.0176 5.4536L171.063 35.4996L252.816 6.2731ZM1.9815 30.2224L85.9821 0.186166C86.3423 0.0359851 87.3026 -0.144233 88.0529 0.186166L171.063 29.862L254.073 0.186166C254.404 0.0660214 254.734 0.0059488 255.094 0.0059488H255.124C256.714 0.0059488 258.185 1.47773 258.125 3.09969V177.31C258.125 178.542 257.285 179.713 256.144 180.134L172.114 210.17C171.453 210.41 170.703 210.41 170.043 210.17L87.0325 180.494L4.02225 210.17C2.22159 210.831 0.000778936 209.269 0.000778936 207.346V33.136C-0.029232 31.8744 0.811075 30.673 1.9815 30.2224Z" fill="#141623"/>
<path d="M13.1225 250.667H14.8053L10.4055 238.519H8.56493L4.14758 250.667H5.83038L6.81202 247.95H12.1409L13.1225 250.667ZM11.6851 246.653H7.26778L9.47645 240.483L11.6851 246.653Z" fill="#141623"/>
<path d="M16.1345 245.829C16.1345 248.809 18.1153 250.825 20.6921 250.825C22.445 250.825 23.6896 249.931 24.2681 248.861V250.667H25.8807V237.695H24.2681V242.779C23.6019 241.675 22.2171 240.903 20.7096 240.903C18.1153 240.903 16.1345 242.831 16.1345 245.829ZM24.2681 245.846C24.2681 248.108 22.7605 249.422 21.0076 249.422C19.2547 249.422 17.7647 248.09 17.7647 245.829C17.7647 243.568 19.2547 242.288 21.0076 242.288C22.7605 242.288 24.2681 243.62 24.2681 245.846Z" fill="#141623"/>
<path d="M27.437 241.061L31.2058 250.667H33.0639L36.8326 241.061H35.1323L32.1523 249.195L29.1549 241.061H27.437Z" fill="#141623"/>
<path d="M42.4866 242.253C44.1344 242.253 45.5367 243.287 45.5192 245.163H39.4541C39.6294 243.287 40.9265 242.253 42.4866 242.253ZM46.9741 247.705H45.2562C44.9056 248.739 43.9941 249.475 42.5567 249.475C40.9265 249.475 39.5592 248.406 39.4365 246.46H47.1143C47.1494 246.127 47.1669 245.846 47.1669 245.496C47.1669 242.866 45.3439 240.903 42.5567 240.903C39.7521 240.903 37.8063 242.814 37.8063 245.846C37.8063 248.897 39.8222 250.825 42.5567 250.825C44.9407 250.825 46.4833 249.457 46.9741 247.705Z" fill="#141623"/>
<path d="M56.3017 250.667H57.8793V245.005C57.8793 242.253 56.179 240.886 53.9527 240.886C52.6556 240.886 51.4987 241.429 50.8676 242.428V241.061H49.2725V250.667H50.8676V245.356C50.8676 243.287 51.9895 242.27 53.6197 242.27C55.2324 242.27 56.3017 243.27 56.3017 245.233V250.667Z" fill="#141623"/>
<path d="M60.8355 248.038C60.8355 249.966 61.7997 250.667 63.5 250.667H64.9374V249.317H63.7629C62.7813 249.317 62.4307 248.984 62.4307 248.038V242.376H64.9374V241.061H62.4307V238.642H60.8355V241.061H59.591V242.376H60.8355V248.038Z" fill="#141623"/>
<path d="M75.3893 241.061H73.7941V246.337C73.7941 248.406 72.6898 249.422 71.042 249.422C69.4294 249.422 68.3601 248.423 68.3601 246.477V241.061H66.7825V246.688C66.7825 249.44 68.5178 250.807 70.7265 250.807C72.0061 250.807 73.1806 250.246 73.7941 249.247V250.667H75.3893V241.061Z" fill="#141623"/>
<path d="M79.6778 245.443C79.6778 243.217 80.8347 242.533 82.3597 242.533H82.7804V240.886C81.2554 240.886 80.2212 241.552 79.6778 242.621V241.061H78.0826V250.667H79.6778V245.443Z" fill="#141623"/>
<path d="M88.7061 242.253C90.3538 242.253 91.7562 243.287 91.7387 245.163H85.6736C85.8488 243.287 87.146 242.253 88.7061 242.253ZM93.1936 247.705H91.4757C91.1251 248.739 90.2136 249.475 88.7762 249.475C87.146 249.475 85.7787 248.406 85.656 246.46H93.3338C93.3689 246.127 93.3864 245.846 93.3864 245.496C93.3864 242.866 91.5634 240.903 88.7762 240.903C85.9716 240.903 84.0258 242.814 84.0258 245.846C84.0258 248.897 86.0417 250.825 88.7762 250.825C91.1602 250.825 92.7028 249.457 93.1936 247.705Z" fill="#141623"/>
<path d="M100.516 248.038C100.516 249.966 101.48 250.667 103.18 250.667H104.618V249.317H103.443C102.462 249.317 102.111 248.984 102.111 248.038V242.376H104.618V241.061H102.111V238.642H100.516V241.061H99.2713V242.376H100.516V248.038Z" fill="#141623"/>
<path d="M108.146 245.443C108.146 243.217 109.302 242.533 110.828 242.533H111.248V240.886C109.723 240.886 108.689 241.552 108.146 242.621V241.061H106.55V250.667H108.146V245.443Z" fill="#141623"/>
<path d="M112.494 245.829C112.494 248.809 114.474 250.825 117.034 250.825C118.804 250.825 120.049 249.913 120.627 248.879V250.667H122.24V241.061H120.627V242.814C120.066 241.815 118.839 240.903 117.051 240.903C114.474 240.903 112.494 242.831 112.494 245.829ZM120.627 245.846C120.627 248.108 119.12 249.422 117.367 249.422C115.614 249.422 114.124 248.09 114.124 245.829C114.124 243.568 115.614 242.288 117.367 242.288C119.12 242.288 120.627 243.62 120.627 245.846Z" fill="#141623"/>
<path d="M123.796 241.061L127.565 250.667H129.423L133.192 241.061H131.491L128.511 249.195L125.514 241.061H123.796Z" fill="#141623"/>
<path d="M138.846 242.253C140.493 242.253 141.896 243.287 141.878 245.163H135.813C135.988 243.287 137.286 242.253 138.846 242.253ZM143.333 247.705H141.615C141.265 248.739 140.353 249.475 138.916 249.475C137.286 249.475 135.918 248.406 135.796 246.46H143.473C143.508 246.127 143.526 245.846 143.526 245.496C143.526 242.866 141.703 240.903 138.916 240.903C136.111 240.903 134.165 242.814 134.165 245.846C134.165 248.897 136.181 250.825 138.916 250.825C141.3 250.825 142.842 249.457 143.333 247.705Z" fill="#141623"/>
<path d="M145.632 250.667H147.227V237.695H145.632V250.667Z" fill="#141623"/>
<path d="M156.214 245.443C156.214 243.217 157.371 242.533 158.896 242.533H159.316V240.886C157.791 240.886 156.757 241.552 156.214 242.621V241.061H154.619V250.667H156.214V245.443Z" fill="#141623"/>
<path d="M165.242 242.253C166.89 242.253 168.292 243.287 168.275 245.163H162.21C162.385 243.287 163.682 242.253 165.242 242.253ZM169.73 247.705H168.012C167.661 248.739 166.75 249.475 165.312 249.475C163.682 249.475 162.315 248.406 162.192 246.46H169.87C169.905 246.127 169.922 245.846 169.922 245.496C169.922 242.866 168.099 240.903 165.312 240.903C162.508 240.903 160.562 242.814 160.562 245.846C160.562 248.897 162.578 250.825 165.312 250.825C167.696 250.825 169.239 249.457 169.73 247.705Z" fill="#141623"/>
<path d="M172.028 250.667H173.623V241.061H172.028V250.667ZM172.852 239.501C173.43 239.501 173.904 239.028 173.904 238.414C173.904 237.801 173.43 237.327 172.852 237.327C172.238 237.327 171.765 237.801 171.765 238.414C171.765 239.028 172.238 239.501 172.852 239.501Z" fill="#141623"/>
<path d="M190.207 250.667H191.785V245.005C191.785 242.253 190.085 240.886 187.894 240.886C186.421 240.886 185.054 241.639 184.493 243.024C183.862 241.587 182.547 240.886 180.97 240.886C179.707 240.886 178.568 241.429 177.937 242.446V241.061H176.342V250.667H177.937V245.373C177.937 243.305 179.041 242.27 180.654 242.27C182.232 242.27 183.283 243.27 183.283 245.233V250.667H184.861V245.373C184.861 243.305 185.965 242.27 187.578 242.27C189.156 242.27 190.207 243.27 190.207 245.233V250.667Z" fill="#141623"/>
<path d="M193.806 245.829C193.806 248.809 195.786 250.825 198.346 250.825C200.116 250.825 201.361 249.913 201.939 248.879V250.667H203.552V241.061H201.939V242.814C201.378 241.815 200.151 240.903 198.363 240.903C195.786 240.903 193.806 242.831 193.806 245.829ZM201.939 245.846C201.939 248.108 200.432 249.422 198.679 249.422C196.926 249.422 195.436 248.09 195.436 245.829C195.436 243.568 196.926 242.288 198.679 242.288C200.432 242.288 201.939 243.62 201.939 245.846Z" fill="#141623"/>
<path d="M205.652 245.829C205.652 248.809 207.632 250.825 210.209 250.825C211.962 250.825 213.207 249.896 213.785 248.861V250.877C213.785 252.928 212.505 254.015 210.805 254.015C209.227 254.015 208.088 253.226 207.738 252.069H206.16C206.475 254.12 208.281 255.4 210.805 255.4C213.627 255.4 215.398 253.524 215.398 250.877V241.061H213.785V242.814C213.224 241.78 211.962 240.903 210.209 240.903C207.632 240.903 205.652 242.831 205.652 245.829ZM213.785 245.846C213.785 248.108 212.278 249.422 210.525 249.422C208.772 249.422 207.282 248.09 207.282 245.829C207.282 243.568 208.772 242.288 210.525 242.288C212.278 242.288 213.785 243.62 213.785 245.846Z" fill="#141623"/>
<path d="M218.093 250.667H219.689V241.061H218.093V250.667ZM218.917 239.501C219.496 239.501 219.969 239.028 219.969 238.414C219.969 237.801 219.496 237.327 218.917 237.327C218.304 237.327 217.83 237.801 217.83 238.414C217.83 239.028 218.304 239.501 218.917 239.501Z" fill="#141623"/>
<path d="M229.436 250.667H231.014V245.005C231.014 242.253 229.314 240.886 227.088 240.886C225.79 240.886 224.633 241.429 224.002 242.428V241.061H222.407V250.667H224.002V245.356C224.002 243.287 225.124 242.27 226.754 242.27C228.367 242.27 229.436 243.27 229.436 245.233V250.667Z" fill="#141623"/>
<path d="M237.704 242.253C239.352 242.253 240.754 243.287 240.737 245.163H234.671C234.847 243.287 236.144 242.253 237.704 242.253ZM242.192 247.705H240.474C240.123 248.739 239.212 249.475 237.774 249.475C236.144 249.475 234.777 248.406 234.654 246.46H242.332C242.367 246.127 242.384 245.846 242.384 245.496C242.384 242.866 240.561 240.903 237.774 240.903C234.969 240.903 233.024 242.814 233.024 245.846C233.024 248.897 235.04 250.825 237.774 250.825C240.158 250.825 241.701 249.457 242.192 247.705Z" fill="#141623"/>
<path d="M243.894 245.829C243.894 248.809 245.875 250.825 248.451 250.825C250.204 250.825 251.449 249.931 252.027 248.861V250.667H253.64V237.695H252.027V242.779C251.361 241.675 249.977 240.903 248.469 240.903C245.875 240.903 243.894 242.831 243.894 245.829ZM252.027 245.846C252.027 248.108 250.52 249.422 248.767 249.422C247.014 249.422 245.524 248.09 245.524 245.829C245.524 243.568 247.014 242.288 248.767 242.288C250.52 242.288 252.027 243.62 252.027 245.846Z" fill="#141623"/>
<defs>
<clipPath id="clip0_9_11500">
<rect width="157.567" height="50.4082" fill="white" transform="translate(50.2617 122.407)"/>
</clipPath>
</defs>
</svg>
