<svg width="555" height="563" viewBox="0 0 555 563" fill="none" xmlns="http://www.w3.org/2000/svg">
<path d="M277.698 560.983C429.962 560.983 553.397 435.851 553.397 281.492C553.397 127.133 429.962 2 277.698 2C125.434 2 2 127.133 2 281.492C2 435.851 125.434 560.983 277.698 560.983Z" stroke="#98DBE4" stroke-width="2.12052" stroke-miterlimit="10"/>
<path d="M415.88 39.5833C418.36 51.9166 436.229 58.8741 444.636 66.7247C442.675 67.0107 440.715 67.2908 438.755 67.5768C437.717 67.7286 436.596 67.9095 436.153 69.2287C435.943 69.859 435.972 70.5595 436.188 71.1898C436.655 72.5382 437.74 73.4954 438.632 74.5694C441.964 78.5735 442.564 84.0951 444.186 89.0448C447.185 98.2203 454.133 102.738 459.757 109.935L455.142 109.661C457.336 109.935 464.622 122.157 466.075 124.06C464.191 125.525 461.099 123.062 459.174 124.469C458.281 125.122 458.065 126.336 457.622 127.352C456.408 130.154 453.34 131.578 451.164 133.72C447.436 137.386 446.502 142.936 444.991 147.944C444.338 150.104 443.451 152.357 441.614 153.665C439.035 155.509 435.634 153.91 434.024 151.762C435.704 149.398 437.04 146.584 437.04 143.631C437.04 133.72 424.678 129.593 417.345 126.465C416.189 125.975 414.976 125.473 413.728 125.583C412.345 125.706 411.149 126.558 410.035 127.381C397.451 136.627 384.675 146.065 375.317 158.567C371.385 163.821 367.978 170.247 369.279 176.679C369.431 177.415 369.652 178.168 370.16 178.716C371.344 180 373.485 179.656 375.002 178.798C377.307 177.496 379.185 175.243 382.551 176.533C384.476 177.269 385.929 178.88 386.664 180.8C388.426 185.423 386.804 190.285 387.487 194.995C387.58 195.661 387.755 196.373 388.28 196.793C388.846 197.248 389.657 197.225 390.374 197.132C398.659 196.052 405.484 188.149 405.344 179.79C405.251 174.216 402.468 168.852 402.987 163.301C403.472 158.13 406.879 152.596 410.758 149.334C412.858 154.61 411.382 161.795 411.487 167.527C411.528 169.745 411.668 172.191 413.202 173.796C416.306 177.047 420.711 174.018 424.054 175.728C430.185 178.856 422.403 178.524 420.483 181.349C419.631 182.604 420.051 184.314 419.602 185.761C418.675 188.767 414.55 189.544 412.987 192.275C411.861 194.248 412.345 196.752 411.662 198.923C409.679 205.227 400.753 203.202 395.858 203.605C390.964 204.007 386.617 204.031 384.132 198.69C382.785 195.795 382.855 192.345 382.114 189.532C377.919 195.637 370.866 198.754 365.487 203.605C358.906 209.529 350.996 215.599 342.134 217.082C335.477 218.191 328.36 216.236 327.835 225.306C327.514 230.892 328.891 237.201 327.328 242.653C327.018 243.739 326.604 244.9 325.659 245.525C322.888 247.363 310.024 238.847 307.014 237.54C304.803 236.583 302.481 235.637 300.083 235.795C296.91 236.005 294.121 238.159 292.347 240.809C288.853 246.033 286.805 253.819 285.889 259.959C285.283 264.004 285.691 268.341 287.832 271.82C289.833 275.071 292.814 278.001 294.634 281.357C295.719 283.348 298.065 284.165 300.188 283.377C305.176 281.515 313.326 283.639 316.436 283.639C326.721 283.639 321.663 275.561 324.469 271.948C327.958 267.454 334.118 268.411 337.916 264.967C341.265 261.932 342.198 254.496 347.425 254.496C350.237 254.496 352.664 256.971 355.511 256.971C355.523 256.971 355.54 256.971 355.552 256.971C358.796 256.942 361.823 253.58 365.184 253.58C369.617 253.58 391.944 281.205 391.944 289.78C391.944 291.823 390.841 293.066 388.181 293.066C385.27 293.066 382.82 291.893 377.476 290.399C379.354 296.912 382.481 302.335 387.749 306.689C390.135 295.313 396.5 299.527 398.571 286.464C399.72 287.153 400.846 288.14 402.2 288.14C402.346 288.14 402.491 288.128 402.643 288.105C402.655 287.836 402.661 287.574 402.661 287.311C402.661 273.834 392.877 282.84 384.021 252.587L385.346 251.595C407.1 265.236 415.647 306.228 415.659 306.286C420.582 304.88 421.218 302.522 421.218 298.634C421.218 297.42 421.154 296.054 421.142 294.525C421.125 291.834 425.285 287.48 427.531 286.336C430.214 284.982 431.072 288.245 431.229 290.288C431.883 298.646 432.956 311.049 444.268 311.049C451.409 311.049 460.48 308.364 463.905 307.098C464.191 308.802 464.424 311.458 464.424 314.458C464.424 322.215 462.738 334.362 455.026 334.362C452.785 334.362 450.429 333.2 448.183 333.2C444.595 333.2 440.167 337.642 434.905 337.642C426.358 337.642 419.626 327.159 411.937 327.159C405.933 327.159 405.047 338.669 396.675 338.669C392.329 338.669 393.431 333.568 389.429 331.683C385.427 329.797 380.754 330.118 376.77 327.877C377.026 326.505 377.487 325.081 377.487 323.68C377.487 323.552 377.487 323.429 377.476 323.301C373.246 320.394 362.243 318.993 362.232 314.055C362.22 309.374 367.173 305.685 364.857 301.144C361.351 294.274 345.634 295.401 339.129 293.825C331.265 291.916 323.331 289.932 315.187 289.932C309.342 289.932 305.497 295.494 300.223 295.494C292.522 295.494 287.832 279.052 282.745 283.388C281.426 284.509 270.529 291.408 266.41 297.519C264.082 300.975 269.158 303.59 266.41 306.216C257.216 315.001 247.211 316.962 249.608 312.012C255.681 299.487 219.85 324.445 211.058 334.963C207.412 339.323 209.506 345.627 206.245 350.67C203.182 355.409 196.351 359.145 196.351 365.233C196.351 368.274 197.984 371.268 197.984 374.385C197.984 378.547 194.671 383.549 194.671 388.125C194.671 395.654 202.529 394.417 202.529 404.661C202.529 405.344 202.511 406.026 202.511 406.709C202.511 417.794 211.612 416.795 215.894 422.953C225.894 437.335 206.058 430.477 241.651 438.69C247.351 440.003 248.856 445.968 256.428 445.968C259.374 445.968 262.711 445.361 265.722 445.361C275.773 445.361 271.859 452.675 282.383 452.675C285.323 452.675 288.328 452.103 291.222 452.103C295.154 452.103 293.275 455.745 295.189 457.385C297.849 459.667 303.794 461.173 303.794 465.848C303.794 470.524 296.694 474.388 296.694 479.256C296.694 484.421 303.059 488.513 303.059 493.655C303.059 493.684 303.059 493.713 303.059 493.737C302.994 498.541 298.205 501.482 298.205 506.484C298.205 508.364 298.701 510.354 298.701 512.263C298.701 521.193 286.572 519.536 282.506 526.178L283.789 524.736C283.077 526.306 282.821 527.655 282.821 528.916C282.821 532.225 284.606 534.887 284.606 539.066C284.606 542.475 280.744 553.232 279.775 558.462" stroke="#98DBE4" stroke-width="2.12052" stroke-miterlimit="10"/>
<path d="M279.169 558.911C279.134 559.617 279.105 560.306 279.081 560.977" stroke="#98DBE4" stroke-width="2.12052" stroke-miterlimit="10"/>
<path d="M369.932 544.961C372.61 535.692 379.885 536.509 389.499 530.923C394.423 528.063 397.585 522.973 402.427 520.23C409.072 516.465 414.719 516.716 421.615 511.136C421.545 510.541 421.516 509.963 421.516 509.403C421.516 498.202 434.794 494.361 442.022 486.347C441.281 484.894 440.505 484.03 439.257 482.979C451.473 458.225 500.157 438.707 505.39 409.762C494.457 416.025 484.539 424.407 473.478 430.273C471.664 427.325 471.973 424.179 470.631 421.109C469.26 421.255 468.035 421.675 466.693 421.961C465.993 420.817 465.777 419.539 465.777 418.225C465.777 416.089 466.349 413.854 466.349 411.904C466.349 405.851 459.757 406.914 459.757 399.968C459.757 395.094 462.767 390.675 462.767 385.831C462.767 377.262 454.104 383.905 454.104 373.282C454.104 370.06 455.201 366.756 455.201 363.528C455.201 357.417 449.034 353.261 449.198 347.074C456.887 347.22 459.063 354.213 462.493 359.676C464.453 362.793 469.523 363.482 469.523 368.028C469.523 370.311 468.525 372.745 468.525 374.998C468.525 383.94 477.031 371.052 477.031 414.431C477.031 415.196 477.019 415.832 476.996 416.305C492.118 412.26 528.387 365.163 528.387 347.938C528.387 347.734 528.387 347.529 528.387 347.325C528.066 347.354 527.757 347.372 527.465 347.372C523.486 347.372 522.623 344.127 521.135 341.272C522.436 343.77 515.873 354.113 513.055 352.946C512.244 352.607 511.737 351.802 511.305 351.032C509.012 346.992 507.076 342.749 505.53 338.371C504.631 335.821 502.595 329.914 504.159 327.375C507.128 322.548 513.755 330.176 516.404 332.406C519.053 334.636 522.512 336.591 525.913 335.792C529.314 334.992 530.75 331.198 533.964 330.077C535.878 329.406 538.17 329.675 540.002 328.846C543.351 327.316 543.672 322.67 547.365 326.061C548.356 326.966 548.928 328.315 549.29 329.762" stroke="#98DBE4" stroke-width="2.12052" stroke-miterlimit="10"/>
<path d="M319.428 203.319C320.542 202.881 321.628 202.723 322.689 202.723C325.507 202.723 328.179 203.838 330.822 203.838C332.811 203.838 334.783 203.208 336.802 201.007C335.676 197.424 335.238 194.692 335.238 192.497C335.238 185.131 340.203 183.777 341.037 176.498C339.864 176.586 338.633 176.586 337.484 176.802C335.46 174.152 333.809 173.061 332.449 173.061C326.837 173.061 326.219 191.639 325.175 195.667C324.305 199.029 320.642 200.254 319.434 203.325L319.428 203.319Z" stroke="#98DBE4" stroke-width="2.12052" stroke-miterlimit="10"/>
<path d="M313.349 114.348L313.285 114.377C312.853 116.741 312.089 119.005 311.622 121.364C311.558 121.399 311.5 121.422 311.43 121.445C313.25 124.282 314.469 127.224 315.222 130.498C317.742 130.697 320.933 131.257 323.979 131.257C327.024 131.257 329.912 130.703 331.848 128.689C326.545 125.146 325.624 118.86 319.691 118.86C319.271 118.86 318.827 118.889 318.355 118.959C316.873 117.202 315.403 115.463 313.349 114.353V114.348Z" stroke="#98DBE4" stroke-width="2.12052" stroke-miterlimit="10"/>
<path d="M382.288 86.5233C384.394 90.4223 387.288 95.2728 387.976 99.7204C388.151 99.055 388.712 97.7943 388.712 96.7903C388.712 96.4285 388.642 96.1016 388.455 95.8506C391.156 94.4439 393.32 92.6812 394.108 89.576C392.043 86.3424 386.565 87.2237 382.288 86.5292V86.5233Z" stroke="#98DBE4" stroke-width="2.12052" stroke-miterlimit="10"/>
<path d="M251.358 110.869C256.813 108.096 261.918 104.623 267.442 102.038C270.161 105.184 273.154 106.357 276.327 106.357C285.218 106.357 295.562 97.1698 305.38 96.4402C309.715 103.328 300.713 107.536 332.7 107.536C334.077 107.536 335.384 107.478 336.58 107.332C335.576 104.693 334.112 102.843 331.942 101.051H331.924C331.814 100.94 331.703 100.829 331.586 100.713C333.01 94.1988 339.859 97.7768 343.82 93.0315C346.632 89.6694 344.123 83.4707 347.612 80.7215C351.585 77.593 359.134 80.1845 361.473 75.0014C361.479 74.9839 361.491 74.9664 361.496 74.9489C360.534 73.8049 360.126 72.725 360.126 71.7036C360.126 67.4077 367.365 64.1916 370.965 61.781C370.405 61.7518 369.833 61.7401 369.25 61.7401C364.763 61.7401 359.705 62.5222 354.986 62.5222C339.899 62.5222 341.871 51.0762 331.761 51.0762C327.835 51.0762 324.095 53.265 320.006 53.265C317.171 53.265 314.306 51.8291 311.325 51.8291C304.808 51.8291 306.29 60.0007 303.636 63.5203C299.004 69.6549 290.066 70.6179 284.18 75.3108C279.898 78.7253 280.668 84.7431 276.292 88.6071C271.205 93.1015 250.734 97.3916 250.734 107.688C250.734 108.686 250.927 109.748 251.347 110.869H251.358Z" stroke="#98DBE4" stroke-width="2.12052" stroke-miterlimit="10"/>
<path d="M37.2133 418.254C37.5925 418.178 37.96 418.138 38.3276 418.138C44.9607 418.138 49.7678 430.325 53.4665 430.325C59.8371 430.325 59.1079 417.828 62.159 413.357C65.9044 407.876 83.0094 408.921 83.0094 388.416C83.0094 380.326 75.0519 381.937 70.2506 374.927C67.0478 370.252 67.6137 364.001 64.3467 359.576C61.3948 355.584 56.2085 353.845 53.8516 349.292C49.0736 340.076 50.0595 331.968 42.6271 323.406C43.4322 322.121 43.7472 320.931 43.7472 319.792C43.7472 315.765 39.7802 312.485 39.7802 308.58C39.7802 304.675 43.7589 301.762 43.7589 297.163C43.7589 278.713 33.4271 272.532 33.4271 267.15C33.4271 262.801 35.9065 258.424 35.9065 254.058C35.9065 254.04 35.9065 254.023 35.9065 254.005C35.8948 250.929 33.5613 247.982 33.5613 245.022C33.5613 241.339 37.3708 237.721 37.3708 232.654C37.3708 223.449 29.6642 221.068 29.6642 208.986C29.6642 204.287 30.7085 199.641 30.7085 194.936C30.7085 193.641 30.6268 192.339 30.4285 191.032C29.1625 192.141 28.0949 193.378 26.8581 194.499C24.5946 193.728 22.8502 192.59 21.0476 191.026C19.2682 198.789 16.1179 206.073 13.0668 213.416L13.131 213.264C11.9817 213.655 10.9082 214.163 9.91064 214.788" stroke="#98DBE4" stroke-width="2.12052" stroke-miterlimit="10"/>
<path d="M44.5408 169.99C45.0367 179.02 46.3027 188.242 46.7811 197.289C48.1637 192.123 48.292 185.545 48.292 179.125C48.292 177.636 48.2862 176.159 48.2862 174.706C48.2862 149.841 59.3473 146.934 59.3473 134.385C59.3473 133.737 59.3064 133.095 59.2131 132.459C51.5065 141.232 44.5 156.098 44.5 168.315C44.5 168.875 44.5175 169.435 44.5467 169.984L44.5408 169.99Z" stroke="#98DBE4" stroke-width="2.12052" stroke-miterlimit="10"/>
<path d="M83.0446 83.5636C83.348 85.2738 83.488 86.9315 83.488 88.5425C83.488 104.53 69.6325 115.923 62.2001 131.251C73.6462 124.515 81.4811 113.979 92.3613 106.625C94.7065 107.874 96.9118 108.399 99.0236 108.399C104.607 108.399 109.577 104.728 114.956 100.963C117.021 102.954 119.32 103.724 121.712 103.724C127.761 103.724 134.465 98.8095 139.838 96.1712C143.175 100.759 149.294 102.533 154.662 104.331C154.131 105.131 153.617 105.884 153.04 106.643C155.992 112.38 158.162 114.569 161.254 114.569C163.558 114.569 166.37 113.355 170.401 111.481C170.384 111.481 170.366 111.481 170.343 111.481C167.589 111.481 166.189 110.769 164.748 108.306C167.753 105.125 171.451 102.708 171.451 99.7259C171.451 98.1266 170.39 96.3638 167.595 94.2334C169.235 93.1127 170.821 92.0562 172.56 91.1107C178.125 95.6401 180.675 101.827 187.501 105.131C181.76 109.327 180.459 112.217 180.459 115.859C180.459 118.877 181.357 122.414 181.357 127.644C181.357 128.758 181.317 129.955 181.217 131.239C185.931 127.305 186.62 125.367 186.62 123.727C186.62 123.05 186.503 122.425 186.503 121.731C186.503 115.293 196.893 112.474 200.02 108.709C204.209 103.66 205.527 96.3463 209.71 91.064C211.962 88.2214 216.203 87.9296 218.508 85.1921C223.274 79.5304 220.48 76.5536 228.898 70.133C225.316 71.0086 221.909 72.0183 218.216 72.0242C219.814 63.3681 227.959 60.6131 232.672 53.9708C229.586 53.4221 225.508 53.142 220.94 53.142C206.437 53.142 186.964 55.9495 178.411 61.7396C183.096 56.7141 190.184 55.9728 194.84 51.3384C207.534 38.6958 206.011 35.9583 211.204 35.9583C213.339 35.9583 224.738 37.2249 229.172 37.2249C231.261 37.2249 233.279 36.9272 235.263 36.9272C237.246 36.9272 239.247 37.2307 241.231 38.4623C240.449 40.9196 239.428 43.1376 238.285 45.4373C239.796 45.6883 241.26 45.7817 242.695 45.7817C247.304 45.7817 251.609 44.8011 256.2 44.8011C257.886 44.8011 259.607 44.9354 261.398 45.2972C262.244 38.0012 268.784 37.1432 275.324 35.6431C262.46 56.1304 254.66 43.8789 239.726 62.8837C240.28 62.9187 240.828 62.9362 241.377 62.9362C245.548 62.9362 249.404 61.9381 253.435 60.6482C255.092 65.7904 257.356 68.4754 259.94 68.4754C262.309 68.4754 264.94 66.2165 267.6 61.5178C275.394 61.3019 283.036 41.4332 319.469 41.4332C325.869 41.4332 333.167 46.1786 338.803 47.9997C339.293 47.5794 339.777 47.1592 340.267 46.7448C326.651 36.9681 315.928 37.9311 300.631 35.9641L299.774 34.645C301.267 30.8394 301.944 29.0825 304.359 26.1757L303.344 24.664C302.498 24.6114 301.664 24.5881 300.836 24.5881C293.339 24.5881 286.397 26.5726 278.702 27.0746C283.13 19.0139 287.826 20.6541 294.401 16.3231C299.611 12.8911 296.402 8.099 307.58 8.099C318.757 8.099 330.653 13.2062 341.854 13.2062C342.227 13.2062 343.738 12.1439 345.757 10.5972" stroke="#98DBE4" stroke-width="2.12052" stroke-miterlimit="10"/>
<path d="M439.834 261.378C438.411 265.802 437.781 268.744 437.781 271.207C437.781 275.369 439.572 278.159 442.36 284.421C442.576 284.433 442.786 284.439 442.99 284.439C447.827 284.439 449.973 281.719 452.704 277.686C456.204 277.861 463.444 278.911 469.861 278.911C474.295 278.911 478.338 278.41 480.485 276.775C480.596 275.923 480.648 275.147 480.648 274.435C480.648 261.138 464.862 272.538 464.862 255.605C464.862 254.222 464.902 252.792 464.902 251.42C464.902 249.435 464.821 247.573 464.424 246.138C459.15 247.346 460.119 251.134 456.496 254.951C457.709 256.586 458.304 257.887 458.304 259.101C458.304 260.846 457.073 262.399 454.67 264.448C451.449 260.269 448.445 253.305 445.283 253.305C443.533 253.305 441.736 255.442 439.828 261.372L439.834 261.378Z" stroke="#98DBE4" stroke-width="2.12052" stroke-miterlimit="10"/>
<path d="M491.972 247.854C491.633 249.435 491.487 250.714 491.487 251.782C491.487 257.058 495.087 257.21 497.07 263.146C497.911 265.656 497.257 268.802 498.546 271.102C500.407 274.429 504.474 273.489 504.474 280.931C504.474 284.392 503.389 287.836 503.389 291.344C503.389 291.595 503.389 291.852 503.406 292.103C504.981 293.416 506.533 294.513 508.441 295.278C511.276 293.539 514.216 290.965 514.216 287.638C514.216 283.225 510.558 279.84 510.01 275.544C509.52 271.744 511.212 268.067 510.675 264.249C510.628 263.911 510.558 263.549 510.325 263.298C509.993 262.942 509.444 262.919 508.96 262.86C505.075 262.434 503.389 258.926 501.668 255.914C499.602 252.29 499.521 249.231 499.877 245.274C499.947 244.503 500.215 236.734 499.882 236.98C496.779 239.326 492.835 243.873 491.977 247.859L491.972 247.854Z" stroke="#98DBE4" stroke-width="2.12052" stroke-miterlimit="10"/>
</svg>
