<svg width="307" height="23" viewBox="0 0 307 23" fill="none" xmlns="http://www.w3.org/2000/svg">
<path d="M11.0226 16.3832H13.0893L7.68566 1.46393H5.42517L0 16.3832H2.06673L3.27232 13.0462H9.81697L11.0226 16.3832ZM9.25723 11.4531H3.83206L6.54465 3.87512L9.25723 11.4531Z" fill="#141623"/>
<path d="M14.7218 10.4413C14.7218 14.1011 17.1545 16.5769 20.3192 16.5769C22.472 16.5769 24.0005 15.479 24.711 14.1657V16.3832H26.6916V0.452098H24.711V6.69535C23.8929 5.33906 22.1921 4.3918 20.3407 4.3918C17.1545 4.3918 14.7218 6.75993 14.7218 10.4413ZM24.711 10.4628C24.711 13.24 22.8595 14.8546 20.7067 14.8546C18.5538 14.8546 16.7239 13.2185 16.7239 10.4413C16.7239 7.66413 18.5538 6.09255 20.7067 6.09255C22.8595 6.09255 24.711 7.72871 24.711 10.4628Z" fill="#141623"/>
<path d="M28.6029 4.58556L33.2315 16.3832H35.5135L40.1422 4.58556H38.0539L34.3941 14.5748L30.7127 4.58556H28.6029Z" fill="#141623"/>
<path d="M47.0861 6.04949C49.1098 6.04949 50.832 7.31967 50.8105 9.62322H43.3617C43.5769 7.31967 45.1701 6.04949 47.0861 6.04949ZM52.5974 12.7448H50.4876C50.057 14.015 48.9375 14.9192 47.1722 14.9192C45.17 14.9192 43.4908 13.606 43.3401 11.2163H52.7696C52.8126 10.8073 52.8342 10.4628 52.8342 10.0323C52.8342 6.80299 50.5952 4.3918 47.1722 4.3918C43.7276 4.3918 41.338 6.73841 41.338 10.4628C41.338 14.2088 43.8138 16.5769 47.1722 16.5769C50.1001 16.5769 51.9946 14.8977 52.5974 12.7448Z" fill="#141623"/>
<path d="M64.053 16.3832H65.9906V9.42946C65.9906 6.04949 63.9023 4.37028 61.1682 4.37028C59.5751 4.37028 58.1542 5.03766 57.3792 6.26478V4.58556H55.4201V16.3832H57.3792V9.86003C57.3792 7.31967 58.757 6.07102 60.7592 6.07102C62.7398 6.07102 64.053 7.29814 64.053 9.70933V16.3832Z" fill="#141623"/>
<path d="M69.6213 13.1539C69.6213 15.522 70.8054 16.3832 72.8936 16.3832H74.659V14.7255H73.2166C72.011 14.7255 71.5804 14.3164 71.5804 13.1539V6.20019H74.659V4.58556H71.5804V1.61463H69.6213V4.58556H68.0928V6.20019H69.6213V13.1539Z" fill="#141623"/>
<path d="M87.4955 4.58556H85.5364V11.0656C85.5364 13.606 84.1801 14.8546 82.1564 14.8546C80.1758 14.8546 78.8626 13.6275 78.8626 11.2379V4.58556H76.925V11.4962C76.925 14.8762 79.0563 16.5554 81.7689 16.5554C83.3405 16.5554 84.7829 15.8665 85.5364 14.6393V16.3832H87.4955V4.58556Z" fill="#141623"/>
<path d="M92.7624 9.96767C92.7624 7.23356 94.1833 6.39395 96.0562 6.39395H96.5729V4.37028C94.6999 4.37028 93.4298 5.18836 92.7624 6.50159V4.58556H90.8033V16.3832H92.7624V9.96767Z" fill="#141623"/>
<path d="M103.851 6.04949C105.874 6.04949 107.596 7.31967 107.575 9.62322H100.126C100.341 7.31967 101.935 6.04949 103.851 6.04949ZM109.362 12.7448H107.252C106.821 14.015 105.702 14.9192 103.937 14.9192C101.935 14.9192 100.255 13.606 100.105 11.2163H109.534C109.577 10.8073 109.599 10.4628 109.599 10.0323C109.599 6.80299 107.36 4.3918 103.937 4.3918C100.492 4.3918 98.1024 6.73841 98.1024 10.4628C98.1024 14.2088 100.578 16.5769 103.937 16.5769C106.865 16.5769 108.759 14.8977 109.362 12.7448Z" fill="#141623"/>
<path d="M118.355 13.1539C118.355 15.522 119.539 16.3832 121.627 16.3832H123.392V14.7255H121.95C120.744 14.7255 120.314 14.3164 120.314 13.1539V6.20019H123.392V4.58556H120.314V1.61463H118.355V4.58556H116.826V6.20019H118.355V13.1539Z" fill="#141623"/>
<path d="M127.725 9.96767C127.725 7.23356 129.146 6.39395 131.019 6.39395H131.536V4.37028C129.663 4.37028 128.392 5.18836 127.725 6.50159V4.58556H125.766V16.3832H127.725V9.96767Z" fill="#141623"/>
<path d="M133.065 10.4413C133.065 14.1011 135.498 16.5769 138.641 16.5769C140.815 16.5769 142.344 15.4574 143.054 14.1872V16.3832H145.035V4.58556H143.054V6.7384C142.365 5.51128 140.858 4.3918 138.663 4.3918C135.498 4.3918 133.065 6.75993 133.065 10.4413ZM143.054 10.4628C143.054 13.24 141.203 14.8546 139.05 14.8546C136.897 14.8546 135.067 13.2185 135.067 10.4413C135.067 7.66413 136.897 6.09255 139.05 6.09255C141.203 6.09255 143.054 7.72871 143.054 10.4628Z" fill="#141623"/>
<path d="M146.946 4.58556L151.575 16.3832H153.857L158.486 4.58556H156.397L152.737 14.5748L149.056 4.58556H146.946Z" fill="#141623"/>
<path d="M165.429 6.04949C167.453 6.04949 169.175 7.31967 169.154 9.62322H161.705C161.92 7.31967 163.513 6.04949 165.429 6.04949ZM170.941 12.7448H168.831C168.4 14.015 167.281 14.9192 165.516 14.9192C163.513 14.9192 161.834 13.606 161.684 11.2163H171.113C171.156 10.8073 171.178 10.4628 171.178 10.0323C171.178 6.80299 168.939 4.3918 165.516 4.3918C162.071 4.3918 159.681 6.73841 159.681 10.4628C159.681 14.2088 162.157 16.5769 165.516 16.5769C168.443 16.5769 170.338 14.8977 170.941 12.7448Z" fill="#141623"/>
<path d="M173.764 16.3832H175.723V0.452098H173.764V16.3832Z" fill="#141623"/>
<path d="M186.76 9.96767C186.76 7.23356 188.181 6.39395 190.054 6.39395H190.571V4.37028C188.698 4.37028 187.428 5.18836 186.76 6.50159V4.58556H184.801V16.3832H186.76V9.96767Z" fill="#141623"/>
<path d="M197.848 6.04949C199.872 6.04949 201.594 7.31967 201.573 9.62322H194.124C194.339 7.31967 195.932 6.04949 197.848 6.04949ZM203.36 12.7448H201.25C200.819 14.015 199.7 14.9192 197.934 14.9192C195.932 14.9192 194.253 13.606 194.102 11.2163H203.532C203.575 10.8073 203.596 10.4628 203.596 10.0323C203.596 6.80299 201.357 4.3918 197.934 4.3918C194.49 4.3918 192.1 6.73841 192.1 10.4628C192.1 14.2088 194.576 16.5769 197.934 16.5769C200.862 16.5769 202.757 14.8977 203.36 12.7448Z" fill="#141623"/>
<path d="M206.182 16.3832H208.141V4.58556H206.182V16.3832ZM207.194 2.66953C207.905 2.66953 208.486 2.08826 208.486 1.33476C208.486 0.581268 207.905 0 207.194 0C206.441 0 205.859 0.581268 205.859 1.33476C205.859 2.08826 206.441 2.66953 207.194 2.66953Z" fill="#141623"/>
<path d="M228.509 16.3832H230.447V9.42946C230.447 6.04949 228.359 4.37028 225.668 4.37028C223.859 4.37028 222.18 5.296 221.491 6.99675C220.716 5.23141 219.101 4.37028 217.164 4.37028C215.614 4.37028 214.214 5.03766 213.439 6.28631V4.58556H211.48V16.3832H213.439V9.88156C213.439 7.3412 214.796 6.07102 216.776 6.07102C218.714 6.07102 220.006 7.29814 220.006 9.70933V16.3832H221.943V9.88156C221.943 7.3412 223.299 6.07102 225.28 6.07102C227.218 6.07102 228.509 7.29814 228.509 9.70933V16.3832Z" fill="#141623"/>
<path d="M232.929 10.4413C232.929 14.1011 235.361 16.5769 238.504 16.5769C240.679 16.5769 242.207 15.4574 242.918 14.1872V16.3832H244.898V4.58556H242.918V6.7384C242.229 5.51128 240.722 4.3918 238.526 4.3918C235.361 4.3918 232.929 6.75993 232.929 10.4413ZM242.918 10.4628C242.918 13.24 241.066 14.8546 238.913 14.8546C236.761 14.8546 234.931 13.2185 234.931 10.4413C234.931 7.66413 236.761 6.09255 238.913 6.09255C241.066 6.09255 242.918 7.72871 242.918 10.4628Z" fill="#141623"/>
<path d="M247.477 10.4413C247.477 14.1011 249.91 16.5769 253.074 16.5769C255.227 16.5769 256.756 15.4359 257.466 14.1657V16.6415C257.466 19.1603 255.895 20.4951 253.806 20.4951C251.869 20.4951 250.47 19.5263 250.039 18.1054H248.101C248.489 20.6243 250.706 22.1958 253.806 22.1958C257.273 22.1958 259.447 19.8923 259.447 16.6415V4.58556H257.466V6.7384C256.777 5.46823 255.227 4.3918 253.074 4.3918C249.91 4.3918 247.477 6.75993 247.477 10.4413ZM257.466 10.4628C257.466 13.24 255.615 14.8546 253.462 14.8546C251.309 14.8546 249.479 13.2185 249.479 10.4413C249.479 7.66413 251.309 6.09255 253.462 6.09255C255.615 6.09255 257.466 7.72871 257.466 10.4628Z" fill="#141623"/>
<path d="M262.758 16.3832H264.717V4.58556H262.758V16.3832ZM263.769 2.66953C264.48 2.66953 265.061 2.08826 265.061 1.33476C265.061 0.581268 264.48 0 263.769 0C263.016 0 262.435 0.581268 262.435 1.33476C262.435 2.08826 263.016 2.66953 263.769 2.66953Z" fill="#141623"/>
<path d="M276.688 16.3832H278.626V9.42946C278.626 6.04949 276.538 4.37028 273.804 4.37028C272.211 4.37028 270.79 5.03766 270.015 6.26478V4.58556H268.056V16.3832H270.015V9.86003C270.015 7.31967 271.392 6.07102 273.395 6.07102C275.375 6.07102 276.688 7.29814 276.688 9.70933V16.3832Z" fill="#141623"/>
<path d="M286.842 6.04949C288.866 6.04949 290.588 7.31967 290.567 9.62322H283.118C283.333 7.31967 284.926 6.04949 286.842 6.04949ZM292.354 12.7448H290.244C289.813 14.015 288.694 14.9192 286.928 14.9192C284.926 14.9192 283.247 13.606 283.096 11.2163H292.526C292.569 10.8073 292.59 10.4628 292.59 10.0323C292.59 6.80299 290.351 4.3918 286.928 4.3918C283.484 4.3918 281.094 6.73841 281.094 10.4628C281.094 14.2088 283.57 16.5769 286.928 16.5769C289.856 16.5769 291.751 14.8977 292.354 12.7448Z" fill="#141623"/>
<path d="M294.444 10.4413C294.444 14.1011 296.877 16.5769 300.042 16.5769C302.195 16.5769 303.723 15.479 304.434 14.1657V16.3832H306.414V0.452098H304.434V6.69535C303.616 5.33906 301.915 4.3918 300.063 4.3918C296.877 4.3918 294.444 6.75993 294.444 10.4413ZM304.434 10.4628C304.434 13.24 302.582 14.8546 300.429 14.8546C298.276 14.8546 296.447 13.2185 296.447 10.4413C296.447 7.66413 298.276 6.09255 300.429 6.09255C302.582 6.09255 304.434 7.72871 304.434 10.4628Z" fill="#141623"/>
</svg>
